<?xml version="1.0" standalone="no"?>
<!DOCTYPE svg PUBLIC "-//W3C//DTD SVG 1.1//EN" "http://www.w3.org/Graphics/SVG/1.1/DTD/svg11.dtd" >
<svg xmlns="http://www.w3.org/2000/svg" xmlns:xlink="http://www.w3.org/1999/xlink" version="1.1">
<metadata></metadata>
<defs>
<font id="thiregular" horiz-adv-x="1103" >
<font-face units-per-em="2048" ascent="1536" descent="-512" />
<missing-glyph horiz-adv-x="1017" />
<glyph horiz-adv-x="0" />
<glyph horiz-adv-x="682" />
<glyph unicode=" "  horiz-adv-x="1017" />
<glyph unicode="&#x09;" horiz-adv-x="1017" />
<glyph unicode="&#xa0;" horiz-adv-x="1017" />
<glyph unicode="!" horiz-adv-x="720" d="M260 739v738q0 63 16 129q1 9 14 18.5t23 11.5q61 0 70 -18q41 -72 41 -119q3 -63 3.5 -130.5t-0.5 -151t-1 -109.5q2 -51 8.5 -201t11.5 -225q1 -14 -2.5 -26t-7 -19.5t-14 -15.5t-15.5 -11t-19.5 -10.5t-18.5 -9.5q-37 -18 -66.5 -5.5t-34.5 48.5q-8 70 -8 106z M279 119q7 34 36 57.5t58 20.5q37 -6 68 -41t28 -68q-3 -34 -41.5 -64t-73.5 -26q-35 6 -59.5 45t-15.5 76z" />
<glyph unicode="&#x22;" horiz-adv-x="1130" d="M209 1550q-12 22 3.5 52t47.5 30q5 -3 26.5 -12t39.5 -20.5t28 -26.5q105 -150 121 -303q1 -7 -5.5 -18t-12.5 -13q-29 -7 -54 2q-11 2 -24 29q-10 16 -170 280zM563 1597q0 24 27.5 44t54.5 6q1 -1 18 -22t26.5 -39t12.5 -36q26 -178 -28 -323q-3 -7 -14 -14t-17 -5 q-27 3 -45 25q-10 7 -10 37q-4 55 -12.5 164t-12.5 163z" />
<glyph unicode="#" horiz-adv-x="1280" d="M-6 823q0 8 6 18t12 11q20 8 70 12q12 2 41 2q17 0 57 4q71 13 86 86q12 58 13 66q16 82 26 123q3 9 18 17.5t33 11.5q12 0 29 -25q20 -39 23 -66q2 -20 2 -67v-53q5 -60 26.5 -81.5t87.5 -27.5q68 -6 123 -6h21q38 0 59 1t42 9.5t29.5 15t22.5 32.5t21 45.5t24 68.5l2 2 q8 27 58 94l4 6q3 6 20 6t31 -7.5t16 -16.5q7 -68 7 -121q0 -6 -3 -18.5t-4 -16.5q-7 -46 2 -59q11 -18 54 -25q29 -5 37 -8q43 -17 81 -43q13 -13 13 -29q3 -31 -15 -49q-34 -32 -76.5 -44.5t-99.5 -18.5q-12 -2 -32 -10q-2 -1 -7.5 -2.5t-7.5 -2.5l-12 -4l10 -8q2 -2 6 -5 t6 -5q33 -22 35 -23q1 -2 15 -6q1 0 4 -1t4 -1l2 -2q30 -16 43 -24t26.5 -27.5t12.5 -44.5q0 -31 -32.5 -54.5t-82.5 -23.5h-6h-8q-52 0 -80 -22q-29 -23 -35 -74q-6 -47 -33 -115q-6 -18 -24 -29.5t-39 -11.5q-18 0 -29 8q-21 11 -49 70q-1 1 4 25l6 18q7 46 9.5 67 t0.5 41.5t-12 32.5q-14 16 -45 21.5t-98 5.5h-33q-2 -2 -12 -2q-51 0 -82 -4q-66 -9 -107.5 -39t-48.5 -101q-3 -52 -41 -108q-5 -8 -19.5 -14.5t-27.5 -6.5q-5 0 -8 3q-38 12 -64 55q-11 19 7 63q26 53 14 97q-12 39 -60 79q-33 29 -30 60q6 34 61 61q1 0 4 1t4 1q7 0 15 4 q77 36 92 74q7 20 -2 31q-8 18 -23 28.5t-27 13t-32 3.5q-4 0 -13.5 1t-13.5 1q-4 2 -10 2q-50 11 -82 23q-5 2 -9 12.5t-3 19.5zM344 647q-5 -10 2 -26q8 -15 28 -28t38 -13h6q135 18 311 49q8 4 12 12q14 19 11 35q-3 12 -15.5 22.5t-23.5 12.5q-56 6 -109 6q-6 0 -19.5 1 t-19.5 1h-8v-6q-25 0 -37 2h-43q-25 0 -61 -4q-38 -9 -72 -64z" />
<glyph unicode="$" horiz-adv-x="901" d="M14 506q-21 94 70 158q8 4 18 4q14 0 26 -7t13 -16q6 -39 9 -74v-12q12 -145 122 -233q18 -15 58 -15h10q10 0 21.5 15t11.5 26q2 92 2 310q0 21 -10.5 39t-22 27t-31.5 22l-4 4q-106 73 -153 198q-93 261 141 486q6 6 18.5 17.5t18.5 17.5q92 80 125 143q9 20 32 20 q17 0 27 -10q47 -43 92 -69t103 -33q72 -9 133 -97q43 -63 38.5 -134.5t-55.5 -135.5q-10 -10 -36 -10q-9 0 -13 2q-11 3 -22.5 13.5t-12.5 19.5q-6 36 9 80q17 54 -39 106q-33 33 -68 33q-26 0 -43.5 -17t-23.5 -45q-15 -77 -27 -178q-1 -11 -4 -30t-4 -25v-2v-57v-80 q3 -61 16 -74q14 -19 80 -31q104 -20 164 -92q39 -50 45 -90q49 -311 -164 -490q-7 -6 -21.5 -17t-21.5 -17q-3 -2 -19 -15.5t-21 -17.5t-18.5 -15.5t-20 -18.5t-17.5 -18t-19 -22l-16 -22q-19 -29 -55 -29q-22 0 -40.5 12t-25.5 35q-7 26 -18.5 46t-33 37t-31.5 23t-40 23 q-6 3 -18.5 10.5t-18.5 10.5q-171 108 -215 311zM244 1061q21 -125 92 -174l4 -2l6 2q22 12 37 28t21.5 38t9 36.5t4.5 40.5q0 5 1 14.5t1 14.5q2 25 2 76q0 4 -1 11.5t-1 10.5h4v10v33q0 65 -2 98q0 23 -10 29q-24 12 -35 12q-6 0 -10 -4q-69 -65 -103 -129t-20 -145z M500 500h6v-29q0 -61 2 -94v-4q0 -70 49 -70q48 3 86 33q56 53 78 147q19 93 -10 166q-13 32 -62 66q-22 16 -49 16q-31 0 -57.5 -19t-30.5 -50q-4 -35 -8 -105q0 -8 -1 -24t-1 -23z" />
<glyph unicode="%" horiz-adv-x="888" d="M51 168q14 47 47 119q332 693 578 1192q20 45 65 75q14 7 36 6.5t36 -8.5t26.5 -28.5t8.5 -30.5q-66 -197 -119 -309q-47 -100 -150.5 -306t-152.5 -313q-30 -62 -58.5 -129.5t-66 -161.5t-53.5 -133q-17 -43 -43 -59.5t-72 -13.5q-44 2 -69.5 32.5t-12.5 67.5zM63 1018 q-3 35 27.5 72t61.5 34q37 -3 65 -35.5t27 -70.5q-2 -30 -29 -53.5t-59 -22.5q-30 2 -60 26t-33 50zM614 662q5 15 17 29.5t26.5 28.5t18.5 19q50 1 85 -26t38 -64q1 -26 -25 -47t-63 -24q-45 -3 -76 23t-21 61z" />
<glyph unicode="&#x26;" horiz-adv-x="1155" d="M11.5 364q4.5 43 15.5 74q75 232 297 379q71 47 99.5 105t16.5 141q-2 15 -3 32.5t-1 30.5t2 34t3 30.5t4 34.5t4 32q23 173 137 279q94 88 182 87.5t180 -89.5q90 -87 90 -174q-3 -173 -118 -279q-31 -30 -67.5 -59.5t-86.5 -68t-72 -56.5q-32 -27 -41.5 -61t6.5 -70 q45 -98 95 -170q16 -26 23.5 -37t19 -19.5t16.5 -8.5t18.5 9t24 20.5t33.5 37.5q53 59 106 37q32 -13 42.5 -41t0.5 -59q-21 -82 -59 -160q-31 -58 14 -109q86 -98 121 -151q18 -25 -18 -66q-19 -22 -62 -22q-31 3 -67 28q-17 12 -47 41t-56 47.5t-51 22.5q-18 4 -42 -10 t-54 -38.5t-47 -33.5q-155 -78 -275 -92q-117 -15 -199 27t-145 143q-27 43 -35.5 101t-4 101zM165.5 269.5q4.5 -35.5 22.5 -52.5q29 -28 50.5 -44.5t63 -33t85.5 -14.5q36 1 67.5 8t48 14t54 25.5t55.5 26.5l45 27.5l45 27.5t29 20q3 3 3 8t-2.5 13t-5.5 14.5t-7.5 17.5 t-7.5 17q-8 19 -37 68q-7 12 -50 80.5t-67 109.5q-48 84 -64 98q-24 23 -61 -2q-20 -14 -61 -51q-69 -58 -110.5 -113t-76.5 -137q-11 -26 -17 -59t-1.5 -68.5zM596 1137q0 -29 6 -54q2 -9 10 -19t17 -13t23.5 -1t21.5 9q116 95 164 143q53 57 44 116t-79 112q-27 21 -57 19 t-52 -24q-98 -103 -98 -288z" />
<glyph unicode="'" horiz-adv-x="866" d="M367 1575q-2 29 31 53t67 6q5 -8 22 -29t29.5 -42.5t15.5 -42.5q33 -219 -34 -392q-3 -9 -15.5 -16.5t-21.5 -5.5q-33 7 -55 29q-11 14 -11 45q-19 254 -28 395z" />
<glyph unicode="(" horiz-adv-x="1062" d="M174 473q-12 662 461 1145q53 53 113 53q19 0 43 -6q16 -7 22 -18q14 -33 -2 -74q-20 -57 -90 -127q-196 -196 -281 -461q-73 -226 -67 -534q3 -165 73 -275q74 -116 230 -174q4 -1 25 -8l30 -10q32 -10 96 -33q20 -7 23 -37q4 -42 -23 -61q-60 -46 -108 -46q-3 0 -33 5 q-101 22 -182.5 62.5t-136 94t-93.5 113.5t-60 128.5t-30 131.5t-10 131z" />
<glyph unicode=")" horiz-adv-x="952" d="M174 1669q3 26 28.5 40.5t57.5 14.5q13 0 37 -4q276 -90 399 -374q99 -224 103 -586q18 -576 -432 -934q-32 -21 -50 -21q-32 0 -79 50q-45 45 -45 79q0 26 24 50q4 2 8 6q36 36 64 53q145 95 223 248q66 129 90 317q38 283 -57 563q-42 133 -103 215q-73 98 -188 144 q-56 25 -61 35q-25 54 -19 104z" />
<glyph unicode="*" horiz-adv-x="829" d="M174 1382q-3 8 8 23t21 18q30 11 90 15q22 3 29.5 14.5t3.5 34.5q-10 44 -17 108q-2 25 14.5 32.5t47.5 -5.5q4 -2 12.5 -6.5t12 -5.5t9.5 -1t11 5.5t10 15.5q17 33 29 36.5t32 -15.5q41 -43 55 -46t54 25q5 3 14.5 11.5t14.5 11.5q4 2 12.5 7t13.5 7.5t11.5 4t12 -3 t9.5 -13.5q13 -30 -8 -68q-9 -16 -33.5 -38t-30.5 -29l-22.5 -22.5t-11 -16t-3.5 -12.5t11 -10.5t20 -11.5t35 -15q37 -15 42 -44t-24 -55q-6 -5 -21 -13.5t-24 -15t-8 -10.5q1 -6 2.5 -19t2.5 -19.5t0 -16t-5 -14.5t-12 -10t-21 -7q-15 -1 -43.5 11t-40.5 14 q-11 2 -25 -3.5t-18 -12.5q-6 -11 -13 -35t-11 -33q-12 -24 -33.5 -31t-42.5 4q-56 33 -78 49q-34 27 -12 66q4 7 18.5 28.5t20.5 32.5q12 20 6 26.5t-35 4.5q-6 0 -18 -4q-3 0 -9.5 -0.5t-10.5 -0.5t-8.5 1t-6.5 4q-34 30 -39 53z" />
<glyph unicode="+" horiz-adv-x="1052" d="M12 739q13 42 43 56q28 13 95 30q32 8 53 15q59 17 84.5 29.5t36.5 33.5q11 20 11.5 60.5t-5.5 105.5q0 46 4 57q6 12 18 23t23 14q2 2 12 2q25 0 37 -12q60 -78 125 -176q36 -62 92 -62q13 0 41 7q53 12 166 12h14q17 0 31 -14q10 -10 10 -27v-2q3 -47 -33 -72 q-56 -40 -135 -65q-38 -14 -59.5 -22.5t-39.5 -21.5t-24 -23.5t-8.5 -32t1 -43.5t11.5 -60q7 -29 15 -47q14 -43 16 -72q0 -76 -88 -108q-6 -2 -18 -2q-28 0 -57 22.5t-38 52.5q-10 34 -16 60q-32 143 -48 175q-20 37 -54 38q-18 0 -49 -11t-53 -22t-83 -41q-20 -10 -37 -10 q-27 0 -51 14.5t-37 38.5q-25 48 -6 100z" />
<glyph unicode="," horiz-adv-x="473" d="M49 -342q0 10 17 23q58 35 90 78t37.5 93t-4 98.5t-33.5 108.5q-4 11 -22 46t-23 55q-5 15 -0.5 37t14.5 34q35 43 96 -6q85 -67 124.5 -159t35.5 -240q-2 -43 -12 -71.5t-38.5 -58.5t-85 -55t-147.5 -51q-9 -3 -23 4t-22 17q-9 13 -4 47z" />
<glyph unicode="-" d="M109 586.5q8 32.5 30 42.5q51 24 76 30q209 36 680 113q63 10 110.5 -12t45.5 -60q0 -35 -31.5 -65t-79.5 -39q-181 -34 -588 -104q-189 -30 -237 40q-14 22 -6 54.5z" />
<glyph unicode="." horiz-adv-x="391" d="M47 106q0 57 39.5 101t91.5 45q48 2 87 -45t36 -105q-2 -45 -38.5 -74t-90.5 -28q-54 0 -89.5 30t-35.5 76z" />
<glyph unicode="/" horiz-adv-x="1277" d="M221 96q58 155 90 209q45 77 86.5 156t83.5 171.5t71.5 158t73.5 176.5t63.5 161t68.5 178.5t63 166.5q5 11 15.5 41t20 49.5t22.5 35.5q13 19 42.5 30.5t49.5 6.5q43 -11 61 -51q7 -20 9 -45.5t-3 -38.5q-8 -22 -23 -67.5t-27 -80t-25 -65.5q-53 -127 -162 -365.5 t-162 -365.5q-9 -21 -32 -76.5t-32 -77.5q-86 -220 -139 -335q-33 -61 -61 -76t-90 0q-40 11 -58.5 40t-5.5 64z" />
<glyph unicode="0" horiz-adv-x="1171" d="M-6 616q0 129 21 232t65 219q19 54 57 106t69 82t87 80q65 52 110 70q58 25 129 25q55 0 144 -15.5t143 -46.5q47 -32 70 -49.5t49.5 -45t42 -60t29.5 -80.5q86 -324 49 -541q-17 -96 -42.5 -170t-67.5 -144.5t-107.5 -125t-155.5 -93.5q-9 -4 -48 -24t-52 -25 q-42 -18 -76 -27t-75.5 -7.5t-82.5 18.5q-100 40 -171.5 93t-110.5 134q-43 85 -64 213q-12 76 -12 182zM147 639q-11 -178 74 -354q35 -66 110 -108t138 -25q256 74 362 280q20 40 33.5 83.5t21 80t8 85t-0.5 80t-8.5 85t-12 80t-15.5 84t-15 80.5q-16 59 -92 112 q-15 10 -32.5 12t-26 1t-31.5 -9.5t-27 -9.5q-12 -2 -14.5 -2.5t-16 2t-16.5 2.5q-208 42 -324 -168q-91 -158 -115 -391z" />
<glyph unicode="1" horiz-adv-x="620" d="M2.5 1007q5.5 24 17.5 35q146 140 400 367q14 11 37 16.5t39 -0.5q15 -4 24 -8.5t18 -17.5t9 -33q9 -230 -15 -455q-38 -365 -38 -712q0 -16 2 -45.5t2 -53.5t-4 -43q-6 -24 -28 -47t-42 -26q-22 -4 -52 10.5t-42 34.5q-29 54 -29 135q2 119 8 357.5t8 357.5q1 18 -4 110 q-10 -2 -101 -26.5t-140 -34.5q-15 -1 -37.5 12.5t-30.5 28.5q-7 14 -1.5 38z" />
<glyph unicode="2" horiz-adv-x="1134" d="M8.5 101.5q-12.5 31.5 3.5 56.5q39 64 140 100q123 43 219.5 114t164.5 165t113.5 196.5t79.5 229.5q15 57 2 200q-6 59 -59 87t-113 3q-78 -30 -100 -67q-15 -28 4 -119q6 -30 -3.5 -51t-35.5 -27q-48 -10 -90 19q-40 28 -50.5 65t-7.5 123q-1 61 29 102t98 84 q20 10 23 11q210 82 333 -2t132 -291q12 -249 -113 -457q-55 -95 -203 -315q-43 -64 17 -109q169 -121 293 60q4 5 12 21.5t16.5 25.5t20.5 12q18 4 39.5 -9t38.5 -34q48 -60 -8 -152q-53 -89 -137.5 -124t-207.5 -46q-27 -2 -69 23q-56 40 -96 80q-52 51 -109.5 55 t-118.5 -33q-123 -69 -215 -37q-30 9 -42.5 40.5z" />
<glyph unicode="3" horiz-adv-x="1026" d="M14 1366q-11 18 2 43q10 25 54 25q16 1 28.5 -0.5t29.5 -7.5t21.5 -8t28.5 -13q80 -36 150.5 -54.5t151 -18.5t159.5 26q76 26 100 26q41 3 61 -6.5t31 -44.5q14 -28 3 -64.5t-60 -88.5q-31 -32 -93 -90.5t-87 -83.5q-6 -6 -17 -15t-18 -15.5t-16.5 -16.5t-12.5 -17.5 t-5.5 -19.5t3.5 -23q4 -10 21 -16.5t41.5 -12t36.5 -10.5q178 -74 274 -287q43 -92 0 -198q-83 -189 -297 -336q-31 -20 -42.5 -26.5t-39.5 -14.5t-61 -8q-213 -3 -332 141q-14 17 -49.5 57.5t-52.5 63.5q-46 65 -2 127q5 8 13 14t19.5 9.5t20.5 -7.5q34 -30 97 -93.5 t97 -92.5q79 -69 150.5 -71.5t155.5 57.5q56 41 102 90q94 101 90.5 190t-106.5 180q-34 30 -62.5 49t-63.5 33t-73.5 13.5t-81.5 -15.5q-41 -15 -141 8q-32 9 -43.5 48.5t10.5 64.5q22 30 63 66q164 158 179 174q30 26 45 53q0 5 0.5 8.5t-6 6.5t-10.5 4.5t-13 3t-14 2 t-13 1.5t-10 1q-218 6 -375 139q-25 22 -41 51z" />
<glyph unicode="4" horiz-adv-x="1198" d="M14 397q-23 47 2 88q1 1 2 4t2 5t4.5 6t4.5 6q241 307 448 825q13 34 55 82q12 12 31 12q4 0 6 -2q73 -22 131.5 -92.5t63.5 -142.5v-133v-105q-1 -5 -2 -18.5t-2 -20.5q-11 -88 -17 -192q0 -55 29 -84t72 -29q9 0 33 4q8 2 17.5 5t21.5 7.5t18 6.5q53 16 65 18q8 2 21 2 q48 0 84 -45q11 -18 2 -39q-13 -47 -64 -67q-50 -19 -147 -39q-12 -3 -27 -6q-81 -19 -110 -50q-27 -32 -37 -116q-4 -62 -4 -94q-1 -10 -1.5 -28t-1.5 -33t-3 -28q-3 -47 -21 -65q-49 -43 -76 -43h-2q-17 1 -36.5 18t-28.5 37q-15 34 -8 96q0 15 10 93q1 14 4 43.5t4 44.5 q3 26 -16 45q-19 22 -52 22q-10 0 -16 -2q-196 -51 -315 -51q-22 0 -68 4q-53 3 -76 51zM285 567q9 -22 51 -22h4q93 2 135 8.5t64 26.5q21 21 26.5 59t7.5 129v18v9v10v31q0 12 0.5 35t0.5 42.5t-1 36.5q-8 117 -26 117q-6 0 -10 -4l-45 -92q-54 -110 -95 -172 q-64 -103 -106 -176q-19 -34 -6 -56z" />
<glyph unicode="5" horiz-adv-x="1218" d="M5 237.5q-7 61.5 30 124.5q14 23 67 23q13 0 35 -39q83 -163 316 -188q220 -28 385 112q72 60 96.5 145.5t-0.5 178.5q-6 24 -30.5 56t-45.5 42q-163 82 -334 68q-108 -10 -272 -6q-50 3 -86 39t-41 86q-23 256 -25 407q-1 18 23 43.5t45 28.5q28 5 58 5.5t90 -0.5t94 -1 q134 -15 354 57q55 20 108 2q32 -9 41 -28q6 -21 -12 -50q-33 -58 -137 -83q-37 -10 -84 -19t-71 -12.5t-91.5 -13.5t-77.5 -11q-57 -9 -74.5 -26.5t-27.5 -75.5q-7 -41 -14 -109q-9 -67 61 -67q145 0 219 4q219 7 367 -99q54 -37 86.5 -76t46.5 -91q58 -215 -53 -369 q-82 -114 -194 -188.5t-240.5 -102t-274 5.5t-281.5 131q-49 35 -56 96.5z" />
<glyph unicode="6" horiz-adv-x="1222" d="M0 567q2 167 53.5 314.5t136.5 253t189.5 179t220.5 109.5q23 6 74 -12q32 -10 40 -49.5t-18 -56.5q-89 -58 -178 -103q-92 -48 -158.5 -114t-105.5 -147t-58.5 -168t-25.5 -191q0 -11 23 -39q2 -2 10 1t12 7q20 20 68 70.5t75 76.5q69 67 220 133q72 32 149 35.5 t139.5 -12.5t137.5 -49q137 -61 169.5 -205t-57.5 -289q-37 -62 -81 -106.5t-117 -93.5q-8 -5 -33.5 -20t-36.5 -23q-107 -58 -202 -73.5t-180.5 6t-180.5 79.5q-91 54 -152 151q-80 131 -104.5 189t-28.5 147zM339 259q27 -66 114 -95q36 -13 100 -21q162 -3 296.5 95 t168.5 239q10 40 -10 74q-39 70 -128 116.5t-155 28.5q-67 -18 -119 -39t-103.5 -54t-90.5 -81t-64 -110q-36 -87 -9 -153z" />
<glyph unicode="7" horiz-adv-x="1034" d="M-2 1368q4 18 28.5 36.5t43.5 20.5q62 3 128.5 3.5t157.5 -0.5t127 -1v3q40 0 114 0.5t134 0.5t113 -1q54 0 78 -42t-7 -83q-102 -136 -227 -347q-50 -79 -74 -133q-83 -194 -126.5 -360.5t-36.5 -337.5q0 -5 -1 -14t-1 -13q-7 -54 -42 -89.5t-69 -26.5q-40 11 -65.5 51 t-22.5 90q6 78 24 151q51 306 177 594q98 215 118 258q25 52 7 83.5t-76 35.5q-102 9 -207 6q-84 -4 -121 -30q-9 -6 -14 -21t-9.5 -38.5t-7.5 -33.5q-1 -3 -2 -8t-2 -9t-2 -7q-11 -14 -30 -25t-33 -10q-15 1 -33.5 15t-24.5 28q-49 99 -16 254z" />
<glyph unicode="8" horiz-adv-x="1189" d="M8 350q-18 143 6 248q35 130 136 215q8 7 23.5 22.5t23.5 22.5q5 10 16 21q29 29 -2 59q-25 25 -31 41q-48 100 -26 201q21 103 118 166q115 76 244 94q27 6 62 6q40 0 73 -8q217 -58 324 -250q27 -58 14 -122t-55 -118q-23 -30 -31.5 -50t-2 -42.5t33.5 -46.5 q173 -148 182 -395q3 -108 -67 -199q-53 -73 -156 -137q-61 -35 -221 -74q-154 -37 -240 -37q-14 -2 -39 -2q-113 0 -184 68q-78 67 -129 139q-60 88 -72 178zM213 528q-29 -91 8 -219q29 -89 84 -130.5t144 -41.5h4q86 0 172 26t198 77q73 34 76 118v54v51h-8l8 6v6 q0 1 -1 9t-1 14q-16 137 -72 188q-67 56 -254 70h-18q-66 0 -164 -23q-71 -28 -111 -74.5t-65 -130.5zM334.5 1073.5q6.5 -36.5 34.5 -61.5q67 -56 196 -56q8 0 29.5 1t34.5 1q13 2 23 4t20 5t15 5t17 7.5t17 7.5q12 6 27 12q52 22 65 70q13 43 -14 86q-44 61 -88.5 87.5 t-116.5 35.5q-2 0 -7.5 1t-8.5 1q-59 0 -131 -45t-101 -94q-18 -31 -11.5 -67.5z" />
<glyph unicode="9" horiz-adv-x="1036" d="M2 936q3 48 21 86q80 177 208 283q171 143 338 143q73 0 189 -33q97 -50 137 -102q73 -96 99 -162t7 -152q-9 -52 -40 -133q-17 -43 -23 -65q-49 -150 -144 -272.5t-237 -256.5q-49 -48 -145 -136t-115 -105q-68 -62 -152 -62h-2q-37 0 -66 15.5t-32 35.5q-4 36 53 76 q224 148 338 262q66 69 96 125q-79 17 -86 19q-50 10 -59 12q-64 14 -112 35t-111 59v2q-48 32 -77.5 70t-57.5 90q-15 36 -22.5 77t-4.5 89zM176 862q3 -54 28.5 -86t84.5 -67q105 -50 192 -56h27q23 -2 57 -2q46 0 72.5 8t44.5 33q25 36 44.5 68t38.5 76.5t28.5 87t9 94.5 t-14.5 104q-20 80 -57 109q-39 33 -117 33h-18q-54 0 -98 -9q-143 -26 -234.5 -138.5t-87.5 -254.5z" />
<glyph unicode=":" horiz-adv-x="352" d="M45 100q-11 54 21 103.5t79 50.5q46 1 92 -35.5t58 -83.5q11 -48 -23.5 -97.5t-83.5 -55.5q-47 -6 -90 29t-53 89zM57 745q0 41 42.5 84.5t88.5 42.5q42 -1 79.5 -45.5t37.5 -89.5q1 -45 -42 -87t-87 -44q-44 -1 -81.5 47t-37.5 92z" />
<glyph unicode=";" horiz-adv-x="493" d="M47 737q0 41 40.5 82.5t84.5 38.5q40 -1 75.5 -42.5t35.5 -84.5q1 -42 -39.5 -82.5t-81.5 -42.5q-43 -1 -79 44.5t-36 86.5zM61 -410q-12 12 9 48q14 27 34 36q56 25 88.5 61t42.5 81t8 88t-14 100q-3 17 -10.5 48t-12.5 56t-7 48q0 14 15 32.5t30 22.5q13 6 36 1t33 -17 q118 -123 105 -312q0 -131 -79 -219t-220 -113q-20 -5 -58 39z" />
<glyph unicode="&#x3c;" horiz-adv-x="1384" d="M10 434q0 37 21 53q20 16 172 125q122 85 180 131q98 76 285 230q27 21 131.5 105t161.5 128q69 54 131 54q54 0 73 -39q24 -44 8.5 -92t-67.5 -87q-96 -73 -379 -282q-41 -29 -116.5 -86t-98.5 -74q-2 -2 -12.5 -8.5t-18 -12t-20.5 -15t-20 -16.5t-16 -17t-8.5 -16.5 t1.5 -14.5q11 -22 57.5 -38t83.5 -20q34 -5 373 -49q91 -10 231 -28q60 -8 89.5 -28.5t33.5 -60.5q3 -22 -20 -55q-20 -26 -50.5 -44t-60.5 -23q-162 19 -295 30q-66 7 -201.5 14t-228.5 19.5t-174 42.5q-87 32 -201 121q-10 8 -26 20q-19 16 -19 33zM1161 115v8q0 -1 1 -4 t1 -4h-2z" />
<glyph unicode="=" horiz-adv-x="1161" d="M21 908q-13 36 6 71q12 23 43.5 41t62.5 14q39 -6 79.5 -9.5t70 -5.5t76.5 0.5t67 3t75 7t67.5 8t77.5 11t73 10.5q110 16 170 -21q12 -8 24 -23t15 -28q2 -15 -8.5 -37.5t-28.5 -36.5q-68 -53 -131 -63q-101 -14 -180.5 -19t-221.5 -4q-152 4 -290 37q-34 8 -47 44z M82 586q0 18 16 32.5t33 20.5q129 37 229 48t273 1q110 -11 237 -37q20 -3 40.5 -19.5t21.5 -31.5q3 -17 -8.5 -39t-28.5 -31q-63 -40 -127 -51q-14 -4 -43.5 -1t-47 6t-42 8t-27.5 6q-100 21 -148 17.5t-134.5 -13.5t-153.5 -6q-51 3 -71.5 29t-18.5 61z" />
<glyph unicode="&#x3e;" horiz-adv-x="1107" d="M0 302q1 27 10 42q34 48 105 88q68 40 233 127q138 73 146 78q4 2 13 6t13 6q14 7 21.5 10.5t20.5 11t20 13.5t15 15.5t11 18.5t3 21.5t-5 26.5q-2 7 -6 13.5t-9.5 13t-10.5 11.5t-14 11.5t-14.5 10.5t-16.5 10.5t-16 9t-17.5 9.5t-16.5 9q-3 2 -9 5t-9 5q-44 24 -131 64 q-134 63 -160 78q-48 28 -86 102q-14 28 10 90q6 15 52 29q20 4 36 4q21 0 27 -4q105 -63 297 -150q99 -46 143 -67.5t121 -65.5t133 -88q30 -22 66 -88q12 -24 12 -39q0 -21 -6 -39q-23 -52 -33 -67q-15 -20 -53 -41q-422 -238 -723 -404q-21 -12 -51 -12q-34 0 -64 21.5 t-49 58.5q-9 19 -8 46z" />
<glyph unicode="?" horiz-adv-x="972" d="M103 1266q-14 84 22 186q11 34 69.5 82t102.5 55q14 3 42.5 10.5t45.5 11.5t47 7.5t62 3.5q311 7 356 -283q7 -46 10 -110q2 -47 -19 -99t-65 -96q-44 -41 -82 -88q-29 -36 -46.5 -64.5t-29.5 -64.5t-5 -75t32 -80q17 -32 4 -61t-41 -40q-32 -12 -69 2.5t-56 46.5 q-47 83 -35 185t78 174q17 20 76 59q60 42 79 108t17 148q-8 86 -68 143t-138 48q-117 -15 -177 -54q-32 -30 -55.5 -71.5t-15.5 -67.5q5 -15 47 -113q23 -58 -31 -77q-13 -5 -34 -1.5t-31 13.5q-78 78 -92 162zM442 279q25 61 66 61q51 -4 78.5 -31t27.5 -67 q0 -30 -22.5 -54t-46.5 -20q-52 6 -85 41t-18 70z" />
<glyph unicode="A" horiz-adv-x="1200" d="M12 143q17 65 54 140q55 119 178 379q169 355 243 514q7 15 23.5 48.5t24.5 51.5q58 116 98 213q4 6 8 18q11 32 25 49q18 21 59 21q16 2 35.5 -7t23.5 -28q14 -56 37 -159.5l31 -139.5q58 -272 80 -356q4 -20 12 -66q2 -13 7.5 -37t6.5 -30q46 -188 136 -473v-2 q5 -14 15.5 -48.5t16.5 -54.5q22 -73 22 -120q0 -30 -9 -50q-15 -27 -66 -39h-2q-1 -1 -4 -2t-4 -2q-2 0 -7.5 -1t-8.5 -1q-49 0 -84 43q-15 19 -50 168q-8 30 -16 94q-5 39 -8 53q-17 101 -82 134q-43 22 -170 26h-33h-43h-4q-25 2 -65 2q-67 0 -102.5 -6t-59.5 -24 q-21 -18 -35.5 -49.5t-40.5 -104.5q-1 -4 -8.5 -24.5t-12.5 -32.5q-9 -27 -20 -78q-6 -35 -16 -68q-9 -25 -33.5 -41t-54.5 -16q-9 0 -25 4q-39 10 -61 53q-17 31 -11 49zM473 721q-5 -25 12 -49q21 -21 47 -21q1 0 4.5 1t4.5 1q6 0 18.5 1t18.5 1q17 1 88 11q37 4 53 28.5 t18 77.5l-8 37q-16 74 -53 227q-1 7 -10 13t-17 6q-23 0 -31 -15q-7 -14 -22 -40t-18 -31q-32 -55 -46.5 -80.5t-33.5 -74.5t-25 -93z" />
<glyph unicode="B" horiz-adv-x="1036" d="M6 279q0 13 17 30q37 36 47 79.5t10 109.5v4q0 26 1 76.5t1 74.5q0 191 6 381v7q0 93 -51 241q-25 70 -25 72q-4 13 -4 27q0 26 15 53q17 36 59 49q144 35 246 55q34 6 67 6q23 0 33 2h29q108 0 169 -63t72 -185q2 -25 2 -49q0 -128 -67 -235q-20 -30 -10 -49 q9 -25 49 -31q117 -25 189 -97.5t106 -199.5q17 -63 23 -114q4 -33 4 -70q0 -20 -2 -41q-4 -60 -29.5 -115t-73.5 -102q-13 -13 -41.5 -35t-48.5 -31q-203 -98 -367 -98q-118 0 -242 51q-11 5 -22 12.5t-23.5 19.5t-21.5 21.5t-23 26t-20 24.5t-20 26t-17 21q-27 41 -37 46z M213 1235q0 -4 1 -17t1 -22q2 -14 10 -111q2 -22 11 -84q2 -19 16 -38.5t33 -20.5h4q6 0 18 3t15 3q8 0 10 2q66 10 111 33t69 57t34.5 64t16.5 72q8 55 8 143q-1 31 -30.5 59t-46.5 33q-30 12 -68 12q-103 0 -168 -71q-46 -46 -46 -103q0 -7 1 -14zM229 510q1 -8 2 -24.5 t2 -24.5q7 -79 15 -139q4 -39 33.5 -67.5t74.5 -37.5q37 -6 80 -6q109 0 244 51q110 42 151 125q26 47 26 115q0 43 -11 94q-13 66 -94 125q-80 61 -156 61h-6q-110 -3 -199 -28q-95 -27 -133 -80q-29 -47 -29 -145v-19z" />
<glyph unicode="C" horiz-adv-x="1204" d="M33 786q15 105 145 293q38 51 106 118t130 106q21 14 37 22q49 31 73 44.5t65.5 28t84.5 17.5h20q28 0 52 -7t37 -14.5t40 -25.5l6 -6q15 -10 17 -12q64 -52 104 -64q19 -7 37.5 -24t24.5 -37q6 -23 -11 -43q-43 -49 -118 -49q-41 0 -97 16q-98 35 -157 35 q-57 0 -102 -27t-134 -102q-4 -3 -11 -9.5t-11 -9.5q-53 -43 -91 -116.5t-51 -143.5q-6 -36 -6 -70q0 -43 10 -81q19 -77 66 -121q200 -191 405 -191h13q20 0 56.5 1t53.5 1q98 4 131 4q50 0 62 -4q109 -21 129 -53q8 -14 2 -41q-6 -19 -18 -28.5t-52 -30.5 q-58 -27 -241 -27q-316 6 -557 125q-126 62 -232 260q-28 52 -28 143q0 54 10 123z" />
<glyph unicode="D" horiz-adv-x="1222" d="M14 201q5 33 27 51q76 58 100 149q15 57 15 170v29q0 285 10 627v55q2 62 26 86.5t84 24.5h7q12 -1 32 -2t31 -2q44 -6 64 -7q186 -13 442 -125q42 -23 73 -45t55 -46.5t33.5 -36t30.5 -39.5l5 -7q63 -99 85.5 -203.5t24.5 -254.5v-8q0 -123 -31 -219q-32 -98 -104 -189 q-59 -71 -139 -94q-91 -25 -273 -39q-4 0 -12 -1t-12 -1q-13 -1 -39.5 -3t-40.5 -3q-159 -12 -246 -25q-14 -2 -39 -2q-80 0 -162 68q-47 41 -47 92zM279 498q-1 -35 -1 -65q0 -59 4 -94q6 -53 31 -79q35 -35 140 -35q44 0 71 2h70q18 0 68 13q5 1 16 4t16 4q204 38 279 237 q42 107 42 209q0 91 -34 178q-71 180 -274 271q-82 34 -218 67q-4 1 -12 3.5t-12 3.5q-21 6 -39 6q-40 0 -65 -27t-31 -74q-14 -123 -29 -319q-2 -45 -10 -125v-8v-4v-4q0 -13 -1 -27.5t-2.5 -32t-2.5 -27.5q-6 -75 -6 -77z" />
<glyph unicode="E" horiz-adv-x="956" d="M6 375q57 323 80 569q10 112 10 175v5q0 62 -12 162q-4 23 -13.5 55.5t-11.5 40.5q-9 31 -9 60q0 99 104 176q25 14 61 14q43 0 102 -20q79 -34 135 -42q24 -4 49 -4q31 0 62 6q55 11 150 46q29 12 85 20q37 5 73 5q18 0 35 -1q52 -4 61 -24q18 -49 20 -78.5t-12 -48.5 t-49 -33q-111 -44 -297 -51q-297 -7 -365 -43q0 -58 -1 -174t-1 -174v-49q0 -76 70 -84q63 -7 149 -25q35 -7 58.5 -36.5t11.5 -49.5q-28 -43 -74 -57q-22 -5 -44.5 -6.5t-60.5 -2.5t-46 -1q-43 -3 -70.5 -26.5t-34.5 -64.5q-42 -209 -51 -268q-1 -9 -1 -17q0 -31 16 -57 q21 -34 59 -43q68 -21 140 -32q58 -9 115 -9h26q70 2 112 23q55 29 168 49q22 3 50.5 -6.5t35.5 -22.5q7 -17 0 -44.5t-21 -45.5q-43 -49 -100 -71q-151 -63 -342 -63q-62 0 -129 7q-155 18 -237 114q-62 73 -62 178q0 33 6 69z" />
<glyph unicode="F" horiz-adv-x="813" d="M14 1421q23 63 76 101q12 12 23 12t16 -8q64 -67 142.5 -87t195.5 -20h22h23h39h9q28 0 110 4h6q7 1 22.5 3.5t22.5 3.5q9 1 27.5 3t27.5 3q55 0 86 -31q19 -22 19 -45q0 -40 -31 -74q-27 -35 -62 -35q-8 0 -14 2q-94 27 -219 27q-17 0 -48 -1t-48 -1q-20 -2 -62 -2h-18 q-47 -1 -64 -2t-38 -6.5t-33 -16.5q-17 -14 -26 -43.5t-21 -99.5q-8 -49 -9 -86q0 -67 27 -98q37 -43 141 -43q29 0 45 2q27 2 88 2q22 0 64.5 -1t64.5 -1h11q52 -3 67 -21q36 -36 39 -80q3 -21 -10 -37q-15 -18 -51 -18h-12h-99q-33 2 -98 2h-43q-59 -3 -127 -10 q-59 -7 -83 -35q-23 -26 -22 -83q0 -17 17 -273l6 -60q1 -11 1 -21q0 -83 -64 -128q-26 -17 -52 -17q-2 0 -6.5 1t-5.5 1q-13 4 -27 21t-16 31q-2 94 -2 284v95h-2h2q0 141 16 423v5q2 8 2 24q3 57 5 109v16q0 45 -10 93q-12 57 -38 106q-13 24 -13 53q0 26 11 57z" />
<glyph unicode="G" horiz-adv-x="1355" d="M6 657q-3 29 -3 57q0 145 69 290q81 173 232.5 295t330.5 153q12 4 29 4q4 1 13.5 2t14.5 2q23 4 40 -20.5t24 -50.5q4 -10 4 -21q0 -27 -21 -59l-6 -6q-9 -6 -61 -13q-6 0 -10 -2q-201 -40 -330 -178q-112 -121 -174 -334q-11 -36 -11 -71q0 -29 7 -58q18 -58 67 -104 q72 -69 170 -111q155 -67 348 -67q83 0 201 16q75 9 104 57q23 35 23 90q0 17 -2 35q0 4 -1 11q-17 121 -32 152q-20 40 -75 46l-35 2q-23 0 -125 -8q-10 -1 -36.5 -3.5t-47 -4t-29.5 -0.5q-45 3 -66 7.5t-63 20.5q-19 6 -24.5 23.5t-2.5 30.5q5 43 25 61q25 22 65 25 q319 19 455 24q31 2 56 -16.5t34 -50.5q31 -95 31 -146q6 -219 88 -420q22 -53 22 -98q0 -10 -1 -20q-3 -36 -60 -70q-11 -8 -24 -8q-31 0 -56 35q-9 11 -12 32q-1 2 -2 6.5t-2 6.5q-18 65 -72 65q-10 0 -26 -4q-124 -49 -306 -49q-43 0 -129 4q-42 0 -65 2 q-136 3 -244.5 66.5t-212.5 169.5q-34 34 -57 88t-29 114z" />
<glyph unicode="H" horiz-adv-x="993" d="M35 817q53 48 53 127v8q-3 69 -11 204t-11 200q-1 11 -1 20q0 33 11 51q8 15 24 29t31 17q14 2 34.5 -8.5t24.5 -22.5q22 -61 25 -123q1 -50 1 -151.5t1 -151.5q1 -36 2 -55t7.5 -37t13.5 -24.5t27 -12t40 -6t60 -0.5q134 0 202 2q50 1 78 3.5t52.5 11.5t34.5 20.5t16 38 t5 56t-5 81.5q-3 37 -16 103t-17 95q-2 24 -2 45q0 46 10 80q8 20 30.5 39.5t41.5 20.5q17 1 39.5 -19t27.5 -39q37 -186 51 -348q4 -53 4 -113t-2 -140.5t-2 -131.5q4 -54 4 -122q-1 -10 -1 -18q0 -78 -2 -148q0 -14 -1 -29q0 -57 8 -125q10 -84 35 -156q9 -25 -17.5 -52.5 t-59.5 -29.5q-9 -1 -18 -1q-68 0 -89 50q-16 33 -16 99q-2 67 -4 202t-4 203q-2 71 -33.5 106.5t-100.5 41.5q-45 5 -120 5q-37 0 -82 -1q-30 -1 -54.5 -2.5t-44 -6.5t-34 -8.5t-25.5 -14t-18.5 -16.5t-12.5 -23t-8 -26t-4.5 -33t-2 -37t-1.5 -44q0 -16 -1 -31 q0 -149 36 -268q4 -15 5 -29q0 -28 -18 -51q-26 -35 -77 -47q-10 -2 -20 -2q-28 0 -56 18q-34 24 -33 57v5q2 14 9.5 47t8.5 51q12 169 21 325v6q0 54 -53 103q-31 31 -31 64q0 37 35 69z" />
<glyph unicode="I" horiz-adv-x="280" d="M8 1331v6q0 46 29 111q6 13 25 24t34 11q13 0 31.5 -12.5t24.5 -26.5q25 -67 28 -121q1 -25 4.5 -85t5.5 -94q1 -25 2 -58v-24q0 -49 -6 -89q-6 -46 -6 -112q0 -79 8 -185q10 -146 10 -241q0 -34 -1 -62q4 -61 16 -279q1 -8 1 -15q0 -39 -22 -65q-26 -30 -77 -30 q-15 0 -35.5 11t-24.5 23q-14 46 -14 125q-1 96 -3 271t-4 318.5t-5 271.5q-1 54 -10.5 162.5t-10.5 164.5z" />
<glyph unicode="J" horiz-adv-x="974" d="M2 292v8q0 33 21 62q25 37 56 37q14 0 30 -8q15 -10 18 -16q34 -47 78.5 -82t82.5 -55t96.5 -35.5t93.5 -21.5t100 -15q9 -1 18 -1q59 0 109 55q58 65 61 138q1 21 1 41q0 33 -3 62q-10 126 -32 376.5t-32 376.5q-3 38 -26.5 57.5t-59.5 16.5q-38 -3 -75 -3 q-135 0 -246 46q-47 16 -62 39q-9 14 -12.5 34.5t0.5 35.5q4 13 20 27.5t31 19.5q22 7 53 7h14q40 -2 66.5 -7t68 -13t71.5 -10q44 -3 84 -3q61 0 114 7q14 2 27 2q46 0 74 -28q35 -35 35 -109v-10q0 -43 -7 -119q-8 -86 -8 -125q2 -16 22 -178.5t27 -247.5q15 -175 15 -352 q0 -97 -75.5 -185t-168.5 -98q-62 -7 -119 -7q-324 0 -530 214q-28 30 -31 67z" />
<glyph unicode="K" horiz-adv-x="1095" d="M6 1401q28 58 51 76q8 8 23 8q20 0 41.5 -15t28.5 -40q2 -5 5 -17.5t5 -17.5q40 -131 45 -183q11 -114 39 -505q2 -33 7 -100.5t7 -100.5q0 -13 2 -19q0 -30 6 -57q2 -9 11 -17.5t22 -9.5q4 0 12 5t11 10q22 26 28 43q16 42 48 128t48 128q166 431 193 500q35 84 111 231 q10 17 20 41q19 37 51 37q16 0 27 -8q23 -13 40.5 -32.5t18.5 -37.5q1 -6 1 -11q0 -42 -25 -108q-64 -166 -138 -325q-37 -84 -37 -173q0 -13 1 -26q9 -93 59 -193q16 -33 94 -198q94 -197 172 -346q17 -33 17 -60q0 -9 -2 -18q-13 -38 -64 -58q-23 -10 -43 -10 q-45 0 -63 35q-6 13 -17.5 38.5t-17.5 37.5q-14 35 -27 61q-102 219 -194 404l-13 28q-10 21 -22 21t-23 -21l-12 -30q-54 -125 -115 -273q-69 -171 -221 -223q-27 -10 -45 -10q-34 0 -52 21t-18 59q-2 67 -2 134t2 134v111v31q0 506 -94 874q-9 30 -2 47z" />
<glyph unicode="L" horiz-adv-x="1161" d="M0 186q0 277 29 453q14 86 19 182t6 219t3 183q7 95 29 172q3 13 21.5 26t33.5 13t33.5 -11.5t26.5 -23.5q54 -90 54 -188q0 -41 -9 -83q-18 -81 -25.5 -175t-10.5 -205t-9 -175q-3 -35 -12.5 -101.5t-12.5 -98.5q-1 -9 -5 -50.5t-3.5 -50.5t0.5 -51q12 -135 141 -135h6 q82 1 379 20q245 13 328 15q27 1 51.5 -27.5t26.5 -58.5v-6q0 -28 -18 -57q-20 -32 -46 -38q-50 -8 -75 -8q-135 -2 -406 -2v-8q-48 0 -135.5 -0.5t-159 -0.5t-135.5 1q-36 0 -60.5 18.5t-31.5 53.5q-3 12 -11 47.5t-11.5 53.5t-7 46t-3.5 51z" />
<glyph unicode="M" horiz-adv-x="1566" d="M0 96q15 124 23.5 252t11.5 211.5t8 280.5q1 24 1 50q0 80 -7 180q-8 120 -8 174v11q0 101 10 148q14 70 51 80q41 11 59.5 -5.5t32.5 -60.5q107 -301 148 -432q40 -133 152 -360.5t145 -309.5q2 -5 5 -8.5t6 -4t5 -0.5t5.5 2.5t5.5 4t6 5.5t6 5q22 22 36 66 q28 70 81 213t81 213q70 166 101 229q23 52 70.5 155.5t86.5 193.5q13 27 25 61t24 53q7 13 27 24t35 9t34 -15t23 -26q25 -66 35 -145q4 -38 11.5 -111t11.5 -119t8 -109t4 -116q2 -280 108 -672q4 -17 4 -31q0 -53 -53 -71q-21 -8 -40 -8q-19 -1 -36 7q-35 14 -49 52 q-18 53 -20 72q-12 101 -35 302t-35 302q-12 97 -28 143q-8 18 -24.5 17.5t-27.5 -15.5q-40 -44 -61 -108q-42 -112 -115 -311t-86 -236q-31 -85 -66.5 -146t-93.5 -108q-47 -41 -93 -41l-23 3q-58 12 -78 87q-63 243 -248 608q-5 14 -13 28t-20 32.5t-16 25.5q-9 18 -23 11 q-6 -3 -12 -15q-17 -63 -21 -127q-1 -24 -1 -52q0 -49 4 -112l37 -333q6 -53 6 -103q0 -41 -27 -64q-26 -22 -70 -22h-4q-48 2 -76 24q-24 20 -25 52q0 5 1 10z" />
<glyph unicode="N" horiz-adv-x="1126" d="M4 1464q1 15 16 32t29 22q13 4 34.5 -5.5t29.5 -21.5q188 -337 254 -467q27 -53 90.5 -189t115 -231t111.5 -178q10 -15 28.5 -27t28.5 -8q5 1 10 5t10.5 11t8.5 11.5t9 15t7 12.5q24 56 27 72q11 58 30 174.5t31 173.5q57 281 113 518q7 35 76 54q4 1 8 1q21 -1 49 -25 q33 -30 33 -60t-8 -49q-3 -6 -21 -33q-15 -22 -28 -45.5t-23.5 -52t-18.5 -48.5t-15.5 -56t-11.5 -54t-10 -61.5t-8 -59t-8 -67.5t-8 -66q-5 -47 -14 -102t-16 -89.5t-22 -106.5t-21 -99q-5 -26 -20.5 -104t-22.5 -120q-12 -78 -35 -110.5t-72 -38.5q-22 -2 -39 2 t-29.5 18.5t-18.5 23t-17.5 33.5t-14.5 31q-209 409 -338 652q-14 28 -55 84q-9 13 -22 10q-8 0 -13 -19q-5 -52 -21 -164q-16 -111 -23 -197q-4 -54 -4 -107q0 -30 1 -60q2 -23 1 -46q0 -68 -15 -128q-4 -17 -30.5 -33t-45.5 -14q-19 0 -43 20t-25 37q-4 45 -4 93v34 q0 36 1 82q1 68 1 94q4 259 21 404q10 89 10 174q0 170 -39 325q-8 33 -8 69q0 26 4 54z" />
<glyph unicode="O" horiz-adv-x="1087" d="M0 594q3 132 47.5 278.5t134.5 280.5q118 178 353 272q42 16 78 16q94 0 149 -108q51 -104 84 -151q187 -261 187 -537q0 -204 -103 -416q-56 -118 -88 -159q-56 -73 -142 -99q-98 -28 -172 -37q-37 -4 -70 -4q-187 0 -286 113q-169 187 -172 551zM164 428 q15 -152 133 -264q27 -29 63 -48q34 -18 65 -18h3q272 0 377 203q58 119 72 322q0 29 -1 56t-6 57.5t-7.5 48t-12 53t-12 45.5t-15 52t-14.5 48q-26 95 -113 186q-46 49 -98 65q-27 8 -53 8q-23 0 -45 -8q-46 -14 -84 -42.5t-64 -67.5q-4 -7 -16 -25.5t-22.5 -35 t-16.5 -29.5q-136 -288 -136 -531q0 -38 3 -75z" />
<glyph unicode="P" horiz-adv-x="962" d="M4 354q51 350 51 932q0 193 27 203q36 17 86 21q32 3 59 2h28q37 -2 87.5 -8t65.5 -7q62 -8 88.5 -11t81 -12t83 -17t73 -23t74 -33t63.5 -43.5t63 -57.5q87 -98 91 -243v-13q0 -136 -81 -227q-75 -81 -170 -151q-136 -105 -269 -105q-17 0 -34 2h-49q-53 3 -81.5 3.5 t-62.5 -2t-49 -8.5t-31.5 -20t-21.5 -32q-4 -18 -8 -50q-2 -17 -1 -36q0 -16 1 -33q3 -37 10 -92q2 -16 11.5 -48.5t11.5 -49.5q1 -7 1 -14q0 -25 -14 -49q-18 -30 -47 -36q-12 -3 -25 -3q-32 0 -62 19q-44 27 -46 68q-7 70 -7 118q0 33 3 56zM211 836q0 -42 18 -68t60 -43 q65 -28 136 -28q76 0 159 32q157 58 258 229q28 46 28 98q0 36 -13 74q-32 94 -116 130q-157 70 -267 70q-13 0 -25 -1q-38 -3 -97 -4q-36 -2 -51 -2t-35 -5.5t-25.5 -10t-14 -20.5t-9 -31t-2 -48.5t-2.5 -65.5v-10.5v-9.5q0 -14 -1 -43t-1 -41v-202z" />
<glyph unicode="Q" horiz-adv-x="1376" d="M0 631v5q0 160 60 316q60 160 175.5 284t260.5 171q100 34 184 34q47 0 90 -11q107 -26 172 -81t84 -163q9 -49 24.5 -109t25.5 -93.5t35.5 -113.5t31.5 -98q23 -72 23 -131q0 -50 -17 -90q-10 -26 -10 -52q0 -66 69 -128q47 -39 97 -82q4 -4 32.5 -28.5t42.5 -39.5 q38 -43 42 -86v-10q0 -36 -27 -62q-33 -32 -69 -32q-42 0 -87 45q-34 32 -139 147q-24 23 -48 23q-21 0 -42 -17q-35 -29 -79.5 -51.5t-78.5 -35.5t-92 -26t-84.5 -17.5t-91.5 -14.5q-47 -8 -92 -8q-99 0 -186 36q-127 53 -206 167t-94 268q-2 20 -3.5 49t-2.5 35zM162 559 q18 -136 92.5 -214.5t204.5 -88.5q33 -2 104 -2q26 5 77 13t91.5 16.5t75.5 19.5q53 17 63 73q1 11 1 21q0 43 -31 74q-13 14 -28.5 27t-38 30.5t-30.5 24.5q-6 6 -18.5 16.5t-20 17t-16 17t-14.5 19.5q-7 14 -6 35.5t10 35.5q8 14 28 25t33 8q124 -21 226 -109q6 -6 39 5 q1 0 6 22v25q-38 215 -148 430q-12 23 -23.5 39.5t-28 33t-33.5 22t-42 8t-53 -8.5q-6 -2 -16 -2q-18 0 -48 8q-45 13 -57 14q-20 1 -36 1q-41 0 -56 -9q-313 -214 -313 -549q0 -48 6 -98z" />
<glyph unicode="R" horiz-adv-x="950" d="M-1 555.5q-1 19.5 1.5 56.5t3.5 49t6 57t6 52q7 79 9 166q1 50 1 108v92q-1 68 -1 115v52q1 55 23 83.5t75 43.5q23 6 69 19.5t82 23t70 16.5q60 11 115 11q220 0 358 -179q71 -91 101 -153q26 -53 26 -107q0 -9 -1 -18q-5 -63 -45 -121t-124 -140q-80 -77 -213 -129 q-51 -18 -73.5 -30.5t-24.5 -32t15.5 -40.5t60.5 -61q27 -25 104.5 -95t118.5 -111q47 -47 86 -123q27 -49 27 -82q-1 -6 -1 -11q-6 -36 -45 -61q-28 -18 -52 -18q-11 0 -21 4q-32 12 -68 69q-80 128 -193.5 227.5t-267.5 196.5q-9 6 -17 5.5t-12 -3.5t-8 -11t-5 -13.5 t-3 -13.5q-3 -1 -2 -52l2 -51h-4q0 -12 1.5 -39t1 -47.5t-4.5 -38.5q-4 -27 -26 -41.5t-48 -9.5q-24 5 -48 21t-27 32q-4 33 -5.5 109.5t-9.5 116.5q-6 27 -9 57t-4 49.5zM182 1010q-1 -48 -1 -87q0 -102 6 -132q11 -56 52 -61q4 -1 10 -1q48 0 175 47q22 8 57 21 q28 11 80 37t78 43q20 12 35.5 22.5t31 22.5t24 19t27.5 23t27 23q25 20 21 41.5t-24.5 40.5t-55.5 35q-18 10 -62.5 18.5t-70.5 25.5t-29 54q-5 67 -39 88q-31 19 -92 19h-12q-54 -1 -87 -3.5t-61.5 -12t-42.5 -23t-24.5 -40.5t-14.5 -59.5t-6 -85.5q0 -14 -1 -38.5 t-1 -36.5z" />
<glyph unicode="S" d="M4 1078q-4 22 -4 43q0 84 61 155q193 223 470 224q11 0 22 -1q15 1 29 1q112 0 198 -83q34 -30 45 -86q1 -4 1 -8q0 -24 -23 -59q-5 -6 -19.5 -9.5t-25.5 0.5q-12 3 -33.5 17t-32.5 18q-105 46 -199 46q-51 0 -97 -13q-134 -37 -234 -180q-13 -19 -4 -48t32 -38 q36 -12 216 -70q32 -10 107 -28.5t114 -32.5q246 -83 391 -377q30 -62 30 -126q0 -57 -24 -116q-50 -125 -176 -182q-85 -37 -152 -55q-54 -14 -118 -14h-32q-84 4 -161 44q-44 23 -93.5 43.5t-115 45t-96.5 36.5q-64 27 -64 99q0 45 30 71q19 16 41 16q12 0 26 -5 q37 -16 104.5 -51t99.5 -50q83 -37 153 -55q54 -14 117 -14q17 0 35 1q82 5 160 42q64 30 90 87q12 28 12 57q0 31 -14 64q-37 82 -100 142q-132 119 -381 196q-31 9 -90 25t-80 22q-67 20 -94 37q-101 61 -121 169z" />
<glyph unicode="T" horiz-adv-x="874" d="M-96 1393q-1 10 16 25t33 20q11 3 100 8h330q97 7 283 11.5t272 10.5q15 1 35 -9t26 -21q12 -21 12 -41q0 -26 -20 -51q-19 -22 -48 -38.5t-56 -19.5q-45 -5 -91 -6.5t-120.5 -2.5t-91.5 -1q-31 -1 -43 -17.5t-9 -48.5q24 -237 25 -301q4 -185 8.5 -287t23 -257 t52.5 -281q2 -8 2 -16q-1 -24 -21 -44q-28 -28 -77 -36q-9 -2 -17 -2q-24 0 -46 13q-28 17 -36 46l-4.5 22.5t-3.5 26.5q-38 729 -41 807q-4 102 -16 177t-45 143q-7 20 -29 37t-43 20q-33 4 -87 4h-13q-21 0 -40 -1q-36 0 -61 1q-79 4 -120 27q-16 8 -26.5 32.5t-12.5 49.5 z" />
<glyph unicode="U" horiz-adv-x="1273" d="M0 1055v15q0 37 2 132q2 118 2 133q0 16 14 74q8 34 38.5 57.5t49.5 8.5q20 -14 35 -36.5t15 -41.5q5 -162 4 -370v-187v-59.5v-62.5t0.5 -56t3 -60.5t6.5 -55t9.5 -61t13.5 -57.5q15 -62 28 -82q84 -143 170 -143h2q112 3 174 121q108 201 142 483q3 24 23.5 202.5 t35.5 272.5q15 121 37 156q10 15 29.5 19.5t43.5 -10t37 -50.5q17 -53 17 -99v-51q0 -70 -2 -175q-2 -147 -2 -204v-430q0 -66 12 -125q24 -109 143 -109q12 0 25 1q48 5 90 5q18 0 35 -1q11 0 33 -33q3 -4 2.5 -11.5t-4.5 -10.5q-115 -127 -283 -127h-8q-48 0 -84 30.5 t-74 83.5q-18 25 -45 77t-33 63q-8 -79 -69 -127q-119 -100 -236 -129q-50 -10 -92 -10q-106 0 -158 67q-109 145 -135 295q-12 66 -21 131.5t-14 145.5t-8 127t-3.5 146t-0.5 128z" />
<glyph unicode="V" horiz-adv-x="1132" d="M-2 1370q0 22 49 51q7 5 24 4t21 -8q10 -15 45 -62t55.5 -80t34.5 -67q128 -301 191 -520q8 -29 18.5 -56.5t26 -59t25 -50t30 -56t27.5 -50.5q14 -26 40.5 -25t41.5 27q31 44 39 63q19 41 54.5 115.5t63.5 135.5t52 116q26 60 78.5 165.5t91.5 193.5t63 171q10 34 41 50 t57 4q27 -11 47 -45.5t13 -57.5q-8 -31 -17 -47q-75 -115 -136.5 -243t-141 -322t-107.5 -258q-58 -132 -149 -320q-41 -80 -141 -96q-5 1 -14.5 2.5t-17 3.5t-11.5 6q-29 32 -37 64q-34 127 -148 411.5t-147 448.5q-12 57 -66.5 158.5t-60.5 115.5q-30 70 -35 117z" />
<glyph unicode="W" horiz-adv-x="1759" d="M0 1350q-1 5 -1 11q0 45 48 71q16 8 31 8q32 0 55 -37q62 -90 74 -211q45 -354 102 -727q6 -45 43 -143q7 -21 21.5 -29t34.5 8q241 235 303 545q20 108 51 194q5 12 25.5 23t35.5 10q14 0 33 -13t25 -26q21 -51 43 -143q106 -471 112 -494q3 -16 7.5 -32t11.5 -36 t17 -28.5t20 0.5q14 14 57 72q107 164 139 237q18 42 39 76q88 158 251 469.5t251 470.5q10 17 23 15t26 -15q58 -67 58 -125q0 -61 -64 -131q-59 -65 -111.5 -139.5t-100 -162t-80 -153.5t-82 -172.5t-75.5 -160.5q-50 -98 -139.5 -287t-101.5 -215q-16 -31 -49 -57 q-22 -20 -56 -20q-19 0 -39 6q-60 16 -75 61q-20 56 -52 163t-47 150q-10 31 -23 63t-31 75t-26 61q-82 -147 -100 -176q-26 -44 -89 -146.5t-95 -157.5q-59 -98 -191 -108h-12q-31 0 -53 12q-28 16 -31 47q-10 76 -60 349.5t-59 424.5q-4 67 -16.5 141.5t-31 166.5 t-26.5 141q-2 7 -10.5 33t-9.5 41z" />
<glyph unicode="X" horiz-adv-x="962" d="M-0.5 1432q-0.5 27 6 45t21.5 49t48.5 39t55.5 -15q45 -49 62 -80q44 -68 130 -203t130 -202q15 -25 39.5 -24.5t39.5 26.5q105 163 183 303q20 32 48 96t40 86q22 43 53 61t59 13q49 -6 73 -40q14 -19 13 -42q0 -18 -8 -39q-51 -110 -143 -295q-22 -42 -79.5 -119.5 t-80.5 -117.5q-32 -59 -42 -99q-6 -22 -5 -45q0 -20 4 -40q9 -45 43 -103q24 -42 52 -83.5t64 -91.5t54 -77q84 -120 94 -231q3 -32 -15 -57.5t-52 -34.5q-25 -9 -47 -9q-16 0 -30 4q-34 10 -48 54q-32 90 -65 162.5t-81 164.5t-67 131q-12 26 -40 21t-46 -33 q-114 -184 -201 -407q-37 -97 -61 -138q-31 -48 -78 -48q-15 0 -31 5q-34 8 -52 48q-10 22 -9 44q0 17 6 33q2 5 43 90q5 9 47.5 85t62.5 116q12 25 49 97.5t54.5 109t39.5 97.5t32 114q-37 56 -111 169.5t-111 170.5q-13 19 -57 87t-70 103q-16 23 -16.5 50z" />
<glyph unicode="Y" horiz-adv-x="931" d="M-31 162q-2 25 25.5 44t68.5 19q87 -4 99 -6q35 -4 53 -4q35 -5 67 -5q42 0 78 8q62 15 109 71q99 119 99 263q0 32 -5 66q-5 44 -55 111q-80 103 -133 152t-105 116.5t-82.5 116t-83 137.5t-75.5 125q-7 10 -31 70q-15 34 -15 61q0 11 3 20q7 34 41 48q29 14 60.5 -3.5 t59.5 -62.5q79 -135 109 -198q34 -76 127 -191t119 -157q6 -9 16 -17t23.5 -17t19.5 -14q29 -23 49 -28t35.5 8t28.5 47q21 59 72 204.5t79 223.5q41 127 60 166q6 13 26.5 24t34.5 9q16 -2 35.5 -16t22.5 -27q10 -39 10 -73q0 -26 -6 -48q-33 -117 -103 -311 q-126 -350 -184 -682q-32 -185 -159 -283q-103 -80 -243 -80q-32 0 -65 4q-63 7 -221 41q-61 15 -64 68z" />
<glyph unicode="Z" horiz-adv-x="1650" d="M16 211q-18 28 -18 58q0 57 65 122q95 99 234 232q98 92 297 274t297 274q33 30 104 109q8 10 12.5 24.5t0.5 20.5q-30 39 -56 39q-50 4 -160 6.5t-169 7.5q-101 9 -193 47q-18 7 -32 30.5t-19 47.5q-6 23 25.5 51.5t58.5 27.5q41 0 127 -7q126 -14 274 -33 q375 -49 451 -61q35 -6 50 -51q6 -18 6 -34q0 -23 -13 -40q-23 -33 -31 -39q-299 -261 -975 -848q-27 -24 -47 -57q-3 -6 2 -20.5t10 -14.5q102 -8 152 -8h457v-2h583q20 0 74 -13q27 -6 41 -43q7 -19 7 -35q0 -15 -7 -28q-26 -52 -70 -77q-31 -18 -66 -18q-14 0 -28 3 q-203 43 -430 54q-106 5 -205 5q-113 -1 -217 -7q-194 -12 -432 -42q-38 -5 -59.5 -6t-51.5 11t-49 40z" />
<glyph unicode="[" horiz-adv-x="1079" d="M164 1443q0 18 2 34q10 78 80 92q16 4 33 6t38 3.5t33 2.5q21 2 169.5 15.5t225.5 15.5q204 8 316 -17q40 -12 49 -63q3 -15 -10.5 -28t-26.5 -17q-72 -28 -133 -31q-75 -3 -225.5 -6t-225.5 -6q-84 -3 -115.5 -33t-31.5 -108q0 -597 4 -768q1 -48 3 -142.5t3 -142.5 q2 -111 26 -156t88 -55t177 2q27 2 56.5 9.5t66 20t55.5 17.5q10 3 32.5 11.5t38.5 12.5t30 1q46 -6 82 -56q19 -26 11.5 -51.5t-32.5 -38.5q-7 -4 -50 -28.5t-59 -32.5t-48 -20t-58 -15q-163 -17 -451 -6q-143 9 -143 153q-2 238 -2 715q0 107 -3 319.5t-3 317.5 q0 12 -1 33.5t-1 39.5z" />
<glyph unicode="\" horiz-adv-x="905" d="M0 1567q-2 30 10.5 53t40.5 29q45 6 88 -15q11 -6 19 -13.5t14.5 -18.5t9 -17t8.5 -20q71 -135 91 -195q51 -163 129.5 -338t181.5 -380.5t156 -325.5q6 -13 18 -38.5t21 -46t14 -38.5q10 -27 16 -90q-1 -11 -2 -28t-2.5 -26t-5.5 -14q-2 -2 -13 -14.5t-16 -17t-14 -13 t-17 -12t-16 -4.5q-36 -7 -92 34q-27 21 -35 70q-12 79 -41.5 170t-51.5 143.5t-73.5 164t-66.5 145.5q-55 118 -114.5 253t-130.5 297.5t-112 254.5q-12 32 -14 51z" />
<glyph unicode="]" horiz-adv-x="1058" d="M57 -12q3 21 25.5 49.5t40.5 34.5q13 5 34.5 13t30 11t26 5.5t40.5 2.5q165 -5 186 -4q48 3 123 7q146 8 169.5 32.5t19.5 165.5q-2 81 -2 135q0 1 6 688q0 221 -2 265q-3 92 -105 86q-36 -2 -123.5 -8t-123.5 -7t-123 0q-99 4 -168 64q-19 16 -15 45q3 22 27 39 q24 22 76 18q213 0 635 -4q76 0 99 -24.5t15 -98.5q-1 -14 -4.5 -41t-5.5 -49t-2 -41q-6 -552 -6 -557q0 -352 2 -528q0 -24 1.5 -98t0.5 -115q-2 -56 -29 -82.5t-88 -30.5q-439 -36 -579 -45q-58 -3 -129 18q-16 7 -34.5 25t-17.5 29z" />
<glyph unicode="_" horiz-adv-x="1705" d="M88 14q13 14 18 19t20 13t36 13q109 9 186 8t235.5 -6.5t235.5 -5.5q539 15 635 17q51 0 111 -29q11 -6 19.5 -23.5t10.5 -33.5q3 -29 -8.5 -54t-34.5 -26q-85 -5 -215 18q-84 17 -233 2q-46 -6 -102.5 -9.5t-91 -5t-108 -3t-95.5 -2.5q-243 -3 -447 2q-67 4 -113 22 q-36 13 -55 41t-4 43z" />
<glyph unicode="`" horiz-adv-x="628" d="M205 1591q-1 6 5.5 16.5t12.5 12.5q27 10 53 0q10 -4 25 -29q29 -47 85 -141t85 -141q12 -21 -3.5 -50.5t-47.5 -29.5q-5 3 -26.5 12t-39.5 20.5t-28 26.5q-105 150 -121 303z" />
<glyph unicode="a" horiz-adv-x="1071" d="M0 406q10 106 50 196t118.5 160.5t185.5 107.5q60 21 119 20q142 0 279 -120q46 -41 50 -104v-12q0 -57 -34 -109q-79 -129 -86 -236v-15q0 -81 61 -140q58 -55 134 -55q12 0 24 1q10 1 29 7t28 8q43 0 68 -6q9 -3 19.5 -13.5t13.5 -19.5q2 -11 -3 -25t-12 -20 q-19 -14 -56.5 -36t-49.5 -30q-77 -45 -150 -45q-18 0 -36 2q-90 14 -154 98q-40 52 -78 54q-2 0 -4 1q-36 0 -82 -32q-75 -44 -148 -44q-93 0 -182 73q-69 58 -86 121q-20 78 -20 155q-1 29 2 58zM158 342q0 -35 2 -51q1 -90 62 -128q32 -20 69 -20q34 0 74 17 q110 48 145 164q18 73 25 122q17 111 22 199q3 33 -23 55q-22 20 -51 19h-8q-64 -4 -96 -17q-218 -89 -221 -360z" />
<glyph unicode="b" horiz-adv-x="886" d="M0 653q2 2 2 4q0 25 -1 78t-1 78q31 277 35 326q4 59 8 177t8 177q3 35 39 117q5 10 18.5 18.5t22.5 5.5q48 -10 59 -32q23 -48 23 -88v-9q-2 -42 -29 -403q-2 -23 -10 -93.5t-10 -109.5q-1 -11 -1 -20q0 -43 12 -53q6 -5 18 -6q18 0 49 11q70 21 96 33q50 23 104 23 q67 0 140 -35q87 -40 141 -91t73 -104q18 -53 22 -113q1 -11 1 -23q0 -49 -12 -97q-27 -134 -139 -222q-104 -82 -228 -82q-10 0 -20 1q-144 5 -320 69q-48 16 -72 61.5t-26 104.5q-2 49 -2 297zM178 388q20 -48 82 -77q20 -8 44 -14.5t37 -9t15 -2.5q28 -2 53 -3 q65 0 109 18q62 24 105 79q42 53 42 132t-42 124q-85 90 -182 90q-7 -1 -17 -1q-108 -8 -182 -118q-34 -52 -58 -110q-15 -34 -15 -65q1 -22 9 -43z" />
<glyph unicode="c" horiz-adv-x="837" d="M2 472q-1 15 -1 30q0 49 15 92q43 144 134.5 224t236.5 110q29 6 57 6q60 0 110 -29q74 -42 114 -137q7 -14 6.5 -35t-8.5 -33q-15 -25 -41 -25q-20 0 -47 15q-11 6 -28.5 26.5t-29.5 24.5q-68 26 -106 26q-7 0 -13 -1q-91 -14 -171.5 -101.5t-84.5 -179.5v-11 q0 -54 27 -98q30 -49 84 -77q147 -76 283 -76q68 0 133 19t170 30q9 1 21.5 -9t15.5 -19t-1.5 -24t-11.5 -21q-111 -84 -225 -117q-20 -4 -63 -4q-27 -1 -50 -1q-48 0 -84 5q-78 8 -116 22q-10 2 -27 11q-41 33 -108 57q-56 19 -100 67t-64.5 107.5t-26.5 125.5z" />
<glyph unicode="d" horiz-adv-x="1093" d="M0 346v13q0 166 74 276q80 113 154 139q29 10 68 10q60 0 142 -24q12 -3 36.5 -11.5t37.5 -11.5q34 -10 49 -0.5t17 41.5v207q2 28 2 37.5t-2 38.5t-3 39q3 90 11 157q1 11 19.5 22.5t37.5 16.5q9 3 23 -4t20 -16q39 -59 43 -88q4 -43 14 -279q2 -94 19 -267.5t20 -209.5 q0 -21 6 -39q7 -61 23 -106q31 -99 100 -115q4 -4 11 -4q5 -4 15.5 -8t26.5 -7.5t21 -5.5q29 -8 44.5 -27.5t6.5 -43.5q-6 -23 -25.5 -44t-39.5 -24q-52 -11 -72.5 -15t-60.5 -5h-7q-35 0 -57 10q-41 18 -86 22q-20 2 -37 2q-21 0 -39 -3q-32 -5 -84 -17q-51 -13 -133 -13 q-20 0 -43 1q-157 8 -253 104t-99 252zM145 356q-3 -12 -3 -25q0 -33 21 -71q29 -52 73 -70q37 -14 145 -38q167 1 217 53q30 32 30 93q0 38 -12 89q-3 13 -12 36.5t-12 35.5q-10 45 -69 85t-127 52q-29 5 -56 6q-37 0 -72 -10q-43 -17 -55 -47q-49 -100 -68 -189z" />
<glyph unicode="e" horiz-adv-x="1114" d="M4 139q19 34 30 69.5t14 78.5q4 43 4 69v7q0 25 -3 73l-4 72v22q0 78 18 154q2 7 5.5 18.5t23 43.5t47.5 59.5t81.5 57t121.5 44.5q52 11 96 11q24 0 46 -3q62 -9 122 -47q54 -35 80 -81q24 -43 24 -84q0 -3 -1 -7q-2 -45 -25 -90q-28 -51 -54.5 -87.5t-78.5 -94.5 q-21 -21 -64.5 -60.5t-64.5 -60.5q-4 -5 -18 -18.5t-24.5 -25.5t-14.5 -21q23 -6 81 -13q39 -4 80 -4q168 0 371 60q96 29 119 34q9 1 21.5 -7t17.5 -17q4 -9 2 -24t-8 -23q-4 -4 -14 -14.5t-15.5 -15.5t-15 -14t-16.5 -14t-16 -11.5t-18 -10.5q-188 -93 -438 -111 q-16 1 -51.5 2t-63.5 4t-59 9q-53 13 -72.5 17.5t-58.5 8.5q-14 1 -27 1q-23 0 -42 -4q-30 -7 -62 -25q-8 -4 -16 -4q-19 0 -42 22q-32 30 -18 55zM203 473q3 -46 35 -67q15 -10 32 -10q18 0 37 12q111 68 153 106q65 60 91 137q4 11 4 23q0 20 -9 40q-14 34 -42 42 q-53 13 -81 13q-8 0 -15 -1q-110 -22 -157.5 -84t-47.5 -186v-25z" />
<glyph unicode="f" horiz-adv-x="620" d="M-152 637q7 33 29.5 51t59.5 31q13 4 47.5 8t50.5 12q21 9 39.5 29.5t19.5 38.5q4 30 5 61q1 15 1 35t-1 45q-1 49 -1 60v8q0 165 82 385q59 151 187 151q53 0 118 -26q42 -15 70.5 -34.5t44.5 -55.5q8 -21 -6.5 -51t-34.5 -27t-60 13t-61 13q-9 1 -19 1q-29 0 -55 -15 q-35 -19 -45 -55q-43 -159 -53 -221q-7 -38 -12 -164q8 -115 14 -137q9 -31 47 -54q10 -5 36.5 -8t37.5 -8q15 -7 60 -13t68.5 -22.5t19.5 -56.5q-2 -25 -19 -38.5t-36.5 -16t-50 -4.5t-44.5 -5q-49 -10 -67 -31.5t-21 -68.5q-1 -21 -1 -42q0 -130 48 -255 q12 -33 -4.5 -60.5t-50.5 -35.5q-22 -5 -42 -5q-29 0 -53 11q-41 18 -44 59q-4 54 -8.5 163.5t-8.5 164.5q-4 45 -27 67.5t-69 28.5q-14 2 -41 2.5t-35 1.5q-59 4 -89.5 23.5t-25.5 46.5z" />
<glyph unicode="g" horiz-adv-x="854" d="M-76 -283q14 36 49 48t52 -15q47 -78 112 -126.5t135 -65.5t152 -22q35 -3 71 -3q45 0 89 4q98 3 121 117q9 43 9 88v6q-1 48 -5.5 85t-20 90.5t-25 82t-30.5 86.5q-10 28 -17.5 44.5t-15.5 32t-18.5 22.5t-21.5 13t-31 7t-39.5 1t-53.5 -1q-3 0 -7 -0.5l-8 -1t-11.5 -1 t-14.5 -1.5q-5 0 -23 1t-35.5 1t-33.5 -2q-15 -2 -29 -2q-47 0 -90 19q-58 26 -97 75.5t-61 110.5q-15 44 -15 94q0 17 1 34q8 69 45 126q102 153 271 196q54 13 107 13q113 0 222 -62q109 -65 109 -161q0 -39 -18 -83q-29 -78 -29 -157q0 -76 26 -152q8 -24 31 -83.5 t33 -92.5q61 -191 61 -341q0 -39 -4 -75q-27 -235 -256 -256q-52 -4 -103 -4q-236 0 -439 96q-69 34 -127 92q-29 27 -29 67q0 25 12 56zM139 498q-7 -19 0.5 -49.5t22.5 -45.5q84 -79 170 -79q46 0 92 22q64 30 95 84q27 46 27 102q0 10 -1 19v17q0 77 -33 108 q-28 28 -89 28q-16 0 -34 -2q-164 -18 -250 -204z" />
<glyph unicode="h" horiz-adv-x="913" d="M0 1022q0 229 2 342q0 38 27 94q1 3 6.5 6t10 4.5t13 3.5t11.5 3q4 1 11 -2.5t9 -8.5q31 -51 33 -65q17 -119 17 -238q0 -95 -11 -190q-3 -31 11 -44.5t48 -6.5q185 45 222 51q15 3 40 3q22 0 51 -2q62 -4 85 -18q98 -56 143.5 -125.5t52.5 -189.5q12 -162 12 -268v-52 q0 -7 -2 -46t-2.5 -49.5t-3 -41.5t-5 -47t-7 -39.5t-10.5 -44.5q-5 -13 -23 -23t-41 -10q-20 1 -43 20t-30 34q-10 26 -10 98q1 4 1 7q0 78 9 145q3 28 12.5 76t11.5 63q5 36 5 69q0 121 -70 197q-72 77 -168 77q-29 0 -60 -7q-56 -14 -96 -29q-68 -30 -104 -90 q-28 -48 -29 -104q0 -14 2 -29q5 -41 22.5 -133.5t22.5 -141.5v-12q0 -53 -24 -108q-6 -13 -26 -24t-36 -11q-15 0 -35 11.5t-24 23.5q-21 58 -21 122q-2 166 -2 500q2 2 2 8q0 129 -6 195q0 15 -4 47z" />
<glyph unicode="i" horiz-adv-x="366" d="M24 172q0 6 -1 13q0 26 2 68q2 53 2 73q0 59 3 130t6 115.5t10 134.5t9 121q0 32 21 72q5 8 17 15.5t22 7.5q11 2 26 -3t19 -12q4 -8 14 -27.5t15 -30t10 -26.5t6 -30q3 -53 4 -109v-41q0 -43 -1 -95q-1 -78 -1 -110q1 -24 3 -150q1 -58 1 -95q0 -44 -2 -58 q-3 -54 -35 -117q-8 -12 -27 -21.5t-36 -8.5q-14 2 -31.5 14t-24.5 27q-16 33 -23.5 74t-7.5 69zM51 1278q3 58 62 61q27 0 49 -25.5t22 -56.5t-24.5 -53t-53.5 -18q-28 6 -43 31.5t-12 60.5z" />
<glyph unicode="j" horiz-adv-x="548" d="M-698 -422q-5 10 -5 23q0 23 19 55q9 16 27.5 30t35.5 17q16 2 40.5 -10.5t25.5 -24.5q7 -43 25 -75t50.5 -54.5t59 -35.5t74.5 -31q189 -72 510 -129q8 -1 17 -1q33 0 61 22q34 29 37 73q1 25 1 47q0 38 -4 63q-28 132 -40 289q-13 152 -13 265q0 4 1 9q0 115 3 296 q2 135 2 224v54v8q0 46 29 96q9 14 30 25t38 10q18 -2 39 -17t22 -28q1 -6 4 -26.5t4 -28.5t3 -27t2.5 -29t1.5 -26.5t0 -28.5t-2.5 -26t-4.5 -27q-16 -66 -19 -139q-2 -37 -2 -69.5t2 -60.5q3 -57 13 -140q13 -115 19.5 -263.5t7 -222.5t0.5 -266q0 -104 -49.5 -150 t-159.5 -51q-12 -1 -26.5 -1t-44.5 0.5t-58 0.5q-349 47 -684 248q-12 7 -22.5 17t-22 28t-16 26t-17 33.5t-14.5 28.5zM209 1172q0 37 43 73q31 27 58 27q10 0 20 -4q2 -1 16.5 -6t19 -7t16.5 -8t17 -12t12.5 -15.5t10.5 -22t4 -28.5q-5 -26 -14 -43t-25 -28.5t-23.5 -15 t-29.5 -11.5q-10 -3 -20 -3q-28 0 -60 26q-45 36 -45 78z" />
<glyph unicode="k" horiz-adv-x="1026" d="M0 297q2 21 4 62t3.5 66.5t5.5 60t10 63.5q23 125 31 269q4 83 5 158q-1 56 -3 106q-6 120 -19 270q-1 12 -1 23q0 32 9 48q8 16 24.5 30t30.5 15q15 3 35 -6t27 -22q45 -68 47 -115q5 -77 6 -107v-23q0 -27 -1 -67q-2 -60 -11 -106q-26 -125 -26 -269q0 -28 1 -57 q1 -11 -4 -45t0 -54.5t27 -31.5q3 -2 7 -2q26 0 93 68q37 37 111.5 101t130 120.5t94.5 118.5q21 33 54 37t52 -19q26 -29 26 -58q0 -28 -24 -57q-35 -42 -106.5 -123.5t-106.5 -123.5q-29 -31 -29 -63q1 -4 1 -6q2 -34 37 -62q62 -50 188.5 -148.5t188.5 -148.5 q40 -33 50 -67q3 -11 3 -20q0 -22 -15 -42q-30 -36 -76 -40q-4 0 -7 -1q-41 0 -70 34q-54 65 -132 129.5t-129.5 99.5t-152.5 99q-37 25 -70 25q-46 0 -83 -49q-46 -57 -54 -109q-7 -31 -8 -91.5t-4 -84.5q-3 -14 -20 -30.5t-29 -16.5q-26 4 -53 14.5t-31 24.5q-9 32 -15 68 t-12 84t-10 71z" />
<glyph unicode="l" horiz-adv-x="661" d="M33 375q0 49 1 148t1 147q4 176 4 266v125v6q0 344 2 516q0 16 8.5 37.5t24.5 21.5t38 -16.5t33 -34.5q20 -28 29 -86q6 -37 6 -112v-7q1 -108 4 -355t4 -380q0 -65 -2 -96q0 -16 -0.5 -44.5t-0.5 -51.5t1 -43q2 -49 6 -82t14.5 -65.5t31.5 -49t53 -16.5q59 0 151 51 q42 22 88 22q39 0 62 -30q13 -20 13 -41q0 -10 -3 -21q-7 -19 -16 -30q-34 -55 -148 -109q-110 -47 -194 -47q-28 0 -60 8q-50 19 -88 80q-63 105 -63 289z" />
<glyph unicode="m" horiz-adv-x="1329" d="M0 498v278q0 5 1 18.5t1.5 21t3 17.5t6.5 17q27 55 64 72q24 9 45.5 -5.5t30.5 -44.5q13 -45 23 -52q17 -14 52 20q27 31 60 45q58 29 105 37q15 3 31 2q33 0 67 -12q51 -18 92 -70q35 -47 73 -68q12 -9 33 -11.5t33 3.5q24 12 74.5 43.5t78.5 44.5q51 25 100 25 q36 0 72 -15q82 -34 113 -129q46 -146 53 -246q11 -140 11 -380q-1 -39 -33 -65q-26 -21 -57 -20q-7 0 -15 1q-40 5 -68 37q-21 24 -21 48q0 9 3 17q26 84 32 170q3 50 3 111q0 45 -2 96q-3 68 -23 123q-7 19 -12 29t-14.5 24.5t-23 22.5t-31.5 10h-6q-33 0 -75 -30 q-44 -33 -51 -71q-4 -16 -5 -50t-5 -50q-42 -161 -88 -313q-9 -36 -45 -60q-27 -13 -49 -13q-11 0 -21 3q-14 6 -28 24.5t-13 28.5q21 105 60 246q9 28 9 54q0 49 -32 89q-76 90 -172 183q-15 14 -35 14q-25 0 -57 -25q-171 -146 -180 -374q-1 -13 -2.5 -88.5t-7.5 -114.5 q-3 -12 -15.5 -27t-20.5 -22t-28 -23q-20 -17 -50 -7t-32 32q-3 63 -6 189.5t-6 189.5z" />
<glyph unicode="n" horiz-adv-x="962" d="M0 160q31 379 55 577q8 56 33 92q7 9 17 9q22 0 57 -43q42 -47 94 -47q41 0 88 28q30 21 68 33q58 22 112 22q39 1 75 -11q88 -26 144 -115q79 -126 115 -252q29 -96 62 -320q1 -8 2 -17q0 -24 -12 -46q-15 -30 -46 -37q-26 -7 -50 -7q-36 0 -69 15q-14 8 -21.5 38.5 t-0.5 47.5q22 57 25 118q1 14 1 28q0 45 -8 85q-10 52 -32 115q-52 159 -187 186q-24 6 -49 6q-109 0 -219 -114q-35 -32 -39 -115q-3 -23 -3 -86v-53q1 -65 1 -102v-37q-5 -93 -16 -123q-7 -20 -29.5 -36.5t-42.5 -18.5q-3 -1 -7 -1q-31 0 -79 39q-19 16 -31 68 q-9 32 -9 59q0 8 1 15z" />
<glyph unicode="o" horiz-adv-x="925" d="M4 475q-1 22 -1 42q0 272 218 425q100 69 214 69q28 0 56 -4q146 -21 234 -143q127 -177 128 -388q0 -108 -34 -224q-41 -146 -225 -215q-88 -34 -190 -34q-86 0 -181 24q-61 16 -123 98q-98 138 -98 299q0 25 2 51zM166 463q2 -18 5 -53.5t5 -53.5q12 -99 94 -156 q61 -43 131 -43q23 0 48 5q149 32 214 132q44 67 44 156q0 43 -11 91q-13 46 -43 127q-31 74 -97 114q-56 33 -119 34q-13 0 -25 -2q-76 -8 -133 -60q-113 -106 -113 -274v-17z" />
<glyph unicode="p" d="M4 649q-5 28 -5 51q0 32 9 56q16 39 66 63q236 116 464 116q37 0 74 -3q72 -7 132.5 -47t123.5 -105q114 -114 140 -293q4 -26 4 -51q0 -73 -32 -144q-43 -96 -128.5 -158t-185.5 -68q-28 -2 -56 -2q-132 0 -245 40q-24 8 -45 8q-39 0 -66 -28q-29 -31 -29 -82 q0 -19 4 -41q7 -38 23 -108.5t20 -88.5q1 -4 3.5 -18.5t3.5 -21.5t0 -17t-5 -16q-25 -44 -71 -60q-5 -2 -11 -2q-20 0 -55 27q-32 32 -37 65q-14 98 -23 281t-18 264q-9 75 -12 109q-34 223 -43 274zM186 532q1 -14 3.5 -39t3.5 -36q7 -69 16.5 -105.5t33 -63t57.5 -38 t97 -21.5q12 -2 193 -16q7 1 32.5 3t41 3.5t39 6t42.5 10.5q27 8 54 29.5t37 45.5q22 55 22 113q0 41 -10 84q-27 103 -98 170q-59 57 -132 81q-67 22 -127 22q-7 0 -13 -1q-66 -2 -150 -20q-107 -23 -133 -66q-16 -25 -16 -79q0 -36 7 -83z" />
<glyph unicode="q" horiz-adv-x="860" d="M18 285q-18 82 -18 155q0 134 61 236q71 119 199 165q63 22 125 22q66 0 133 -25q4 -1 12.5 -4.5t12.5 -4.5q115 -42 173.5 -93t69.5 -114q5 -26 5 -56q0 -40 -9 -87q-26 -265 -28 -305q-1 -19 -6 -94t-5 -108t5.5 -90.5t19.5 -104.5q5 -16 5 -39q0 -43 -17 -109 q-3 -13 -22.5 -25t-37.5 -14q-15 -1 -33.5 9t-29.5 24q-21 24 -25 70q-7 75 -37 450q-5 48 -40 48q-12 0 -27 -5q-18 -5 -52 -16.5t-62.5 -20t-53.5 -12.5q-26 -4 -52 -4q-107 0 -210 72q-46 30 -56 80zM145 369q24 -55 71 -75q36 -15 99 -15q22 0 47 2q0 -2 16.5 0.5 t42.5 11.5t44 24q107 85 107 222q0 11 -1 22q-3 39 -26 68q-39 50 -105 65q-22 6 -43 6q-40 0 -75 -20q-63 -40 -150 -127q-45 -45 -45 -104q0 -37 18 -80z" />
<glyph unicode="r" horiz-adv-x="663" d="M0 635q-1 11 -1 21q0 160 177 171q69 4 196.5 27t178.5 29q30 1 39.5 0.5t40.5 -6.5t41 -7q6 -2 12.5 -7.5t5.5 -8.5q-5 -40 -12 -45q-39 -19 -117 -43q-30 -10 -84 -27q-78 -24 -109.5 -35t-74.5 -30.5t-53.5 -34.5t-26.5 -45q-15 -28 -15 -59l2 -92q1 -54 5 -122 q1 -12 1.5 -18.5t1 -18t1.5 -20.5q1 -19 3 -40t5 -46.5t4 -40.5v-7q1 -34 -19 -56q-22 -24 -71 -35q-30 -9 -51.5 3.5t-26.5 39.5q-11 82 -51 442q0 95 -2 111z" />
<glyph unicode="s" horiz-adv-x="876" d="M10 594q92 233 299 285q56 14 106 14q115 0 206 -74q17 -14 29 -32.5t27 -52t19 -42.5q8 -17 -19 -43.5t-44 -19.5q-70 27 -90 43q-55 43 -113 51q-18 2 -35 2q-39 0 -73 -12q-50 -18 -105 -58q-9 -8 -18 -22t-6 -17q22 -35 47 -38q34 -1 62 -1q56 0 89 5q26 4 52 4 q140 0 274 -109q79 -65 102 -155q9 -34 9 -66q0 -55 -24 -108q-38 -84 -130 -132q-63 -29 -94 -36q-89 -20 -175 -20q-187 0 -364 95q-35 20 -35 56q0 15 6 32q12 32 40 45.5t59 1.5q10 -5 36 -16t44 -20t34 -19q73 -45 158 -45q94 0 203 55q76 39 76 127q0 38 -18 64 q-20 26 -60 51q-33 18 -72.5 27.5t-66 10.5t-61 0t-42.5 -1q-37 0 -93 -1q-37 -1 -62 -1h-23q-28 0 -55 4q-62 6 -92 58q-17 29 -17 61q0 24 10 49z" />
<glyph unicode="t" horiz-adv-x="999" d="M2 670q5 15 18.5 31t28.5 22q14 5 30 8t36.5 5.5t31.5 4.5q23 3 38.5 6t30.5 6.5t23.5 8.5t17.5 10.5t13 15t7.5 19.5t4 25t0.5 31.5t-1 39.5q-1 22 -6.5 74.5t-6.5 85.5q0 86 1 127.5t17.5 125.5t49.5 142q14 27 53 27h8q22 -1 42 -25.5t20 -44.5q0 -56 -8.5 -158 t-10.5 -141q-2 -26 -2 -68v-21q0 -19 1 -35q0 -32 -1 -54q-1 -13 -1 -25q1 -79 29 -125q32 -54 128 -57q24 0 29.5 -31.5t-15.5 -48.5q-3 -2 -8 -8t-8 -8q-16 -12 -55.5 -29.5t-63 -38.5t-29.5 -57q-10 -53 -10 -104q0 -125 60 -240q6 -10 28 -18t37 -5q57 12 170.5 41 t171.5 41q18 1 27 2.5t17.5 -5.5t11 -10.5t8.5 -12.5q6 -13 2.5 -34t-11.5 -34q-12 -18 -34 -29q-93 -43 -143 -64.5t-123.5 -44t-133.5 -28.5q-100 3 -147.5 38t-59.5 110q-5 33 -7.5 64.5t-4.5 79.5t-4 79q-1 63 -3.5 100.5t-12.5 70.5t-24.5 48t-44.5 26.5t-66 14 t-95 2.5q-25 0 -42.5 22t-8.5 50z" />
<glyph unicode="u" horiz-adv-x="1019" d="M0 743v8q0 29 20 53q22 28 58 34h12q52 0 60 -31q14 -45 28 -141q6 -58 12.5 -142.5t13 -151t15.5 -128.5t53 -90q33 -21 79 -21q15 0 32 2q134 21 197 127q41 69 41 155q0 44 -11 93q-5 23 -19.5 84.5t-21.5 99.5q-2 11 -2 20q-1 39 29 56q23 13 45 13q14 0 27 -5 q18 -8 32.5 -20.5t22.5 -23.5t17 -33.5t12.5 -34.5t11.5 -43q30 -106 49 -195q7 -33 15.5 -90.5t11.5 -75.5q1 -6 4.5 -23.5t4.5 -21.5t4.5 -17t5.5 -16t6.5 -12t9 -11t11 -7.5t14.5 -7.5t18.5 -4.5t23.5 -4.5q98 -12 117 -18q35 -8 35 -31q0 -20 -10 -30t-31 -17 q-33 -10 -78 -27t-81.5 -28t-76.5 -15h-4q-26 0 -61 31q-12 10 -27.5 32.5t-28.5 37.5t-26 16q-18 0 -53.5 -28t-51.5 -35q-104 -49 -164 -60q-39 -5 -72 -5q-85 0 -141 34q-78 48 -118 176q-19 63 -29 147q-19 167 -41 426z" />
<glyph unicode="v" horiz-adv-x="905" d="M6 858q13 43 43 43h4q71 -12 99 -102q15 -48 39 -146.5t40 -146.5q7 -24 18.5 -49t27 -55.5t22.5 -47.5q80 69 121 117q73 83 127 166q19 29 75.5 117.5t88.5 136.5q16 25 39.5 32t44.5 -10q17 -15 26 -41t6 -47q-10 -67 -53 -110q-27 -28 -55.5 -64.5t-45.5 -61.5 t-48 -73.5t-43 -66.5q-19 -29 -42 -61.5t-38.5 -54t-47 -60.5t-42 -51.5t-49.5 -59.5t-44 -53q-38 -48 -88 -48q-19 0 -36 20t-19 36q-9 77 -30 166t-39.5 151.5t-50 164.5t-46.5 153q-10 34 -10 64q0 22 6 42z" />
<glyph unicode="w" horiz-adv-x="1445" d="M-3.5 841q-0.5 8 0 18.5t3.5 19.5q4 13 14.5 23t26.5 9q20 0 40 -8.5t23 -19.5q41 -158 56 -271q6 -44 10.5 -126t5.5 -101q7 -49 29 -49q17 -1 41 7t33 19q35 37 58 62t39.5 47.5t22.5 32t20 36t21 38.5q19 35 52 88q33 51 76 51q2 -1 4 -1q44 -2 79 -59 q37 -60 101 -171t92 -156q19 -34 47 -35t51 31q4 6 42.5 59t47 66t39 58.5t42 68.5t32 62.5t32.5 74t21 71.5q12 50 37 95q21 44 66 44q8 0 16 -1q30 -5 51.5 -36t11.5 -59q-4 -12 -25.5 -68t-29.5 -77t-25.5 -63.5t-32.5 -75t-32 -64.5q-25 -44 -57 -94t-56 -85 t-64.5 -92.5t-60.5 -86.5q-17 -25 -75 -64q-28 -16 -56 -16q-10 -1 -20 1q-38 8 -58 42q-22 39 -61 114t-45 87q-56 103 -88 153q-12 19 -30.5 20.5t-33.5 -16.5q-43 -51 -117.5 -148t-101.5 -130q-29 -38 -86 -88q-14 -11 -35 -11q-13 0 -28 4q-41 10 -47 33 q-37 113 -41 148q-17 106 -74 543q-1 9 -2 23.5t-1.5 22.5z" />
<glyph unicode="x" horiz-adv-x="948" d="M0 67q-1 24 8 35q73 102 203 258q28 33 39.5 47.5t22 36.5t11 31t-6.5 32t-17 40.5t-33 54.5q-8 13 -46.5 76t-57.5 98q-29 60 -29 96q4 65 35 89q23 15 46 5.5t38 -34.5q23 -36 77.5 -124t84.5 -134q21 -30 52.5 -34.5t55.5 19.5q40 40 83 85.5t97 104.5t80 87 q28 30 57 36t54 -14q31 -22 37 -62q1 -8 1 -16q0 -30 -18 -55q-31 -42 -67 -75q-16 -17 -47.5 -46t-44.5 -42q-74 -70 -107 -109q-12 -14 -33 -36q-41 -46 -41 -63q0 -21 30 -61q8 -10 28 -34l8 -11q28 -38 82 -105t74 -93q26 -33 26 -59q0 -19 -14 -34q-46 -53 -80 -53 q-19 0 -40.5 12.5t-31.5 26.5q-13 20 -34.5 65.5t-36.5 67.5q-37 56 -96 115q-20 19 -48 19t-43 -23q-47 -59 -125 -191q-58 -93 -139 -98h-6q-41 0 -78 37q-9 8 -10 32z" />
<glyph unicode="y" horiz-adv-x="815" d="M-39 -504q0 24 23 43q24 19 45 8q30 -17 80 -59q67 -60 151 -86q58 -18 106 -18q61 0 104 30q73 51 73 181v10q-1 61 -7.5 124.5t-19 153t-16.5 123.5q-2 10 -35 29q-4 1 -25 -4q-60 -8 -85 -11.5t-63.5 -3t-50 1t-35.5 15t-30 24.5t-24 43t-26 56.5t-28 79.5 q-30 87 -66 312q-28 176 -28 250q0 20 2 33q1 11 17.5 23.5t33.5 19.5q7 3 22.5 -4.5t18.5 -15.5q44 -124 64 -215q13 -55 30.5 -158.5t24.5 -140.5q6 -32 43 -117q17 -36 56 -47q13 -4 26 -4q24 0 47 14q126 65 166 244q8 38 20 109.5t15 89.5q12 67 28 96q14 22 60 31 q6 0 17 1t23.5 -6.5t16.5 -23.5q6 -29 6 -77q0 -29 -2 -64q-7 -79 -37 -187q-23 -78 -32 -173q-10 -91 -10 -154v-6q1 -65 6 -181.5t6 -165.5q0 -23 2 -64.5t2 -75t-4 -62.5q-13 -124 -100 -197q-84 -70 -202 -70h-10q-105 1 -188.5 47t-181.5 134q-29 25 -29 65z" />
<glyph unicode="z" horiz-adv-x="1021" d="M7 177q-7 18 -7 34q0 26 18 47q100 114 199 193q56 46 165.5 122.5t141.5 100.5q25 17 23 31q-1 8 -15 13t-24 5q-29 3 -135.5 13.5t-163.5 19.5q-118 16 -127 104q-3 25 20.5 45.5t61.5 26.5q12 2 25 2q27 0 57 -8q113 -35 285 -35q43 0 90 2q38 2 76 1.5t75 -1.5 q22 -1 35.5 -3t32 -7t28.5 -17t11 -30q1 -8 1 -17q0 -23 -6 -47q-8 -34 -26 -55q-19 -23 -45 -42.5t-64 -43.5t-53 -35q-22 -16 -59 -40t-60 -40q-29 -19 -68 -49.5t-66.5 -54t-75.5 -64t-66 -55.5q301 -17 325 -17h24q40 0 110 2q56 2 97 2q27 0 46 -1q15 0 36 -14.5 t21 -24.5q0 -24 -8 -49.5t-22 -36.5q-48 -34 -117 -37q-55 -2 -328 -2q-43 1 -145 -3q-80 -3 -131 -3h-27q-34 0 -100 12q-46 9 -65 56z" />
<glyph unicode="{" horiz-adv-x="616" d="M107.5 769q0.5 21 11.5 26q22 12 92 43q47 24 35 71q-5 16 -16.5 49t-16.5 50q-5 15 -17 46t-19 50t-15.5 46.5t-14.5 51.5q-63 241 78 416q81 105 197 111q60 5 162 -7q39 -5 47 -20q3 -5 5 -19t1 -20q-6 -12 -23 -18q-21 -9 -57 4q-75 26 -150.5 -4t-124.5 -97.5 t-55 -146.5q-13 -150 60 -330q7 -18 23 -50.5t20 -41.5q37 -87 8 -143q-4 -9 -7 -17t-3.5 -17t-1 -14.5t1 -16t2 -15t3 -17t3.5 -16.5q35 -195 14 -389q-8 -74 -4 -221q0 -19 4 -37.5t12 -42t11 -33.5q9 -27 20 -33.5t39 -1.5q12 2 40 7.5t40 7.5q21 3 40.5 -12t22.5 -36 q-1 -16 -15 -32t-28 -21q-82 -37 -186 -10q-15 3 -31 16.5t-22 28.5q-46 95 -43 213q0 35 3 103.5t3 103.5q0 137 -2 207q0 59 -12 114q-9 48 -60 60q-32 8 -65 28q-10 5 -9.5 26z" />
<glyph unicode="|" horiz-adv-x="409" d="M0 1405q0 3 1 14t1 17q10 93 23 159q1 10 19 22.5t32 14.5h2q14 0 31.5 -10.5t23.5 -22.5q24 -40 27 -94q4 -191 32 -385.5t82 -470.5q18 -108 33 -213l4 -20q10 -86 21 -150q3 -26 10 -80.5t10 -81.5q9 -48 -20 -81q-25 -31 -78 -31q-13 0 -21 2q-20 1 -42 17.5 t-27 31.5q-41 187 -49 307q-16 249 -95 735l-6 43q-10 64 -10 166q-1 17 -2 54.5t-2 56.5z" />
<glyph unicode="}" horiz-adv-x="778" d="M-109 1659q-4 11 17 43q21 31 51 44.5t76 22.5q86 15 231 15q76 0 127 -96q38 -77 57.5 -138.5t18.5 -126.5q-4 -118 -4 -180q0 -1 -0.5 -106.5t0.5 -106.5q1 -50 21 -65t75 -9q3 0 33.5 7.5t46.5 5.5q13 -2 28.5 -14t16.5 -25q3 -20 -12 -43q-14 -17 -39 -31 q-71 -53 -68 -141q9 -349 19 -492q8 -101 -7 -173t-67 -144q-23 -32 -71.5 -52t-86.5 -8q-35 10 -103.5 28t-103.5 28q-38 13 -55 32q-11 11 -6 43q0 6 8 13.5t15 7.5q38 8 63 0q29 -8 85 -26.5t85 -26.5q53 -12 82 41q47 76 41 172q-3 71 -11.5 212t-11.5 210q0 13 -3 65 t-2.5 84t5.5 64q3 28 -3 37.5t-31 25.5q-13 8 -32 30.5t-22 35.5q-25 140 -4 305q27 204 -18 338q-25 78 -69.5 108t-127.5 23q-62 -8 -188 -45q-3 -1 -11.5 -3.5t-11.5 -3t-9.5 -1t-10 1t-7.5 5t-6 9.5z" />
<glyph unicode="&#xad;" d="M109 586.5q8 32.5 30 42.5q51 24 76 30q209 36 680 113q63 10 110.5 -12t45.5 -60q0 -35 -31.5 -65t-79.5 -39q-181 -34 -588 -104q-189 -30 -237 40q-14 22 -6 54.5z" />
<glyph unicode="&#xb0;" horiz-adv-x="661" d="M79 1273q-10 64 15 116q88 169 258 196q8 2 23 2q46 0 69 -26q70 -79 99 -141t12 -142q-22 -97 -75.5 -141.5t-149.5 -44.5h-4q-113 0 -205 86q-32 31 -42 95zM197 1315q-18 -42 2 -80q17 -33 61 -43q40 -4 55 -4h19q61 4 90 37t27 98v2v8q-6 30 -7 37q-9 35 -37 56.5 t-63 21.5q-31 0 -57 -16q-61 -40 -90 -117z" />
<glyph unicode="&#xb4;" horiz-adv-x="624" d="M209 1309q28 47 85 141t85 141q15 26 24 29q27 10 54 0q6 -2 12.5 -12.5t5.5 -16.5q-16 -153 -121 -303q-10 -15 -28 -26.5t-39.5 -20.5t-26.5 -12q-32 0 -47.5 29.5t-3.5 50.5z" />
<glyph unicode="&#xb6;" horiz-adv-x="1705" />
<glyph unicode="&#xb8;" horiz-adv-x="1705" />
<glyph unicode="&#xba;" horiz-adv-x="1028" d="M4 475q-18 303 217 467q124 86 270 65t234 -143q192 -268 94 -612q-41 -146 -225 -215q-162 -63 -371 -10q-61 16 -123 98q-114 160 -96 350zM166 463q2 -18 5 -53.5t5 -53.5q13 -99 94.5 -156t178.5 -38q149 32 214 132.5t33 246.5q-13 46 -43 127q-31 75 -97.5 114.5 t-143 32t-133.5 -60.5q-119 -111 -113 -291z" />
<glyph unicode="&#xc0;" horiz-adv-x="1200" d="M12 143q17 65 54 140q55 119 178 379q169 355 243 514q7 15 23.5 48.5t24.5 51.5q58 116 98 213q4 6 8 18q11 32 25 49q18 21 59 21q16 2 35.5 -7t23.5 -28q14 -56 37 -159.5l31 -139.5q58 -272 80 -356q4 -20 12 -66q2 -13 7.5 -37t6.5 -30q46 -188 136 -473v-2 q5 -14 15.5 -48.5t16.5 -54.5q37 -121 13 -170q-15 -27 -66 -39h-2q-1 -1 -4 -2t-4 -2q-2 0 -7.5 -1t-8.5 -1q-49 0 -84 43q-15 19 -50 168q-8 30 -16 94q-5 39 -8 53q-17 101 -82 134q-43 22 -170 26h-33h-43h-4q-25 2 -65 2q-67 0 -102.5 -6t-59.5 -24 q-21 -18 -35.5 -49.5t-40.5 -104.5q-1 -4 -8.5 -24.5t-12.5 -32.5q-9 -27 -20 -78q-6 -35 -16 -68q-9 -25 -33.5 -41t-54.5 -16q-9 0 -25 4q-39 10 -61 53q-17 31 -11 49zM473 721q-5 -25 12 -49q21 -21 47 -21q1 0 4.5 1t4.5 1q6 0 18.5 1t18.5 1q17 1 88 11q37 4 53 28.5 t18 77.5l-8 37q-16 74 -53 227q-1 7 -10 13t-17 6q-23 0 -31 -15q-7 -14 -22 -40t-18 -31q-32 -55 -46.5 -80.5t-33.5 -74.5t-25 -93zM582 2050q-1 6 5.5 16.5t12.5 12.5q26 10 53 0q10 -4 25 -29q28 -47 85 -141.5t85 -141.5q12 -21 -3.5 -50t-47.5 -29q-5 3 -26.5 12 t-40 20.5t-28.5 26.5q-104 148 -120 303z" />
<glyph unicode="&#xc1;" horiz-adv-x="1200" d="M12 143q17 65 54 140q55 119 178 379q169 355 243 514q7 15 23.5 48.5t24.5 51.5q58 116 98 213q4 6 8 18q11 32 25 49q18 21 59 21q16 2 35.5 -7t23.5 -28q14 -56 37 -159.5l31 -139.5q58 -272 80 -356q4 -20 12 -66q2 -13 7.5 -37t6.5 -30q46 -188 136 -473v-2 q5 -14 15.5 -48.5t16.5 -54.5q37 -121 13 -170q-15 -27 -66 -39h-2q-1 -1 -4 -2t-4 -2q-2 0 -7.5 -1t-8.5 -1q-49 0 -84 43q-15 19 -50 168q-8 30 -16 94q-5 39 -8 53q-17 101 -82 134q-43 22 -170 26h-33h-43h-4q-25 2 -65 2q-67 0 -102.5 -6t-59.5 -24 q-21 -18 -35.5 -49.5t-40.5 -104.5q-1 -4 -8.5 -24.5t-12.5 -32.5q-9 -27 -20 -78q-6 -35 -16 -68q-9 -25 -33.5 -41t-54.5 -16q-9 0 -25 4q-39 10 -61 53q-17 31 -11 49zM473 721q-5 -25 12 -49q21 -21 47 -21q1 0 4.5 1t4.5 1q6 0 18.5 1t18.5 1q17 1 88 11q37 4 53 28.5 t18 77.5l-8 37q-16 74 -53 227q-1 7 -10 13t-17 6q-23 0 -31 -15q-7 -14 -22 -40t-18 -31q-32 -55 -46.5 -80.5t-33.5 -74.5t-25 -93zM473 1718q28 47 84.5 141.5t85.5 141.5q15 25 25 29q26 10 53 0q6 -2 12.5 -12.5t5.5 -16.5q-16 -153 -121 -303q-10 -15 -28 -26.5 t-40 -21t-26 -12.5q-32 0 -47.5 29.5t-3.5 50.5z" />
<glyph unicode="&#xc2;" horiz-adv-x="1200" d="M12 143q17 65 54 140q55 119 178 379q169 355 243 514q7 15 23.5 48.5t24.5 51.5q58 116 98 213q4 6 8 18q11 32 25 49q18 21 59 21q16 2 35.5 -7t23.5 -28q14 -56 37 -159.5l31 -139.5q58 -272 80 -356q4 -20 12 -66q2 -13 7.5 -37t6.5 -30q46 -188 136 -473v-2 q5 -14 15.5 -48.5t16.5 -54.5q37 -121 13 -170q-15 -27 -66 -39h-2q-1 -1 -4 -2t-4 -2q-2 0 -7.5 -1t-8.5 -1q-49 0 -84 43q-15 19 -50 168q-8 30 -16 94q-5 39 -8 53q-17 101 -82 134q-43 22 -170 26h-33h-43h-4q-25 2 -65 2q-67 0 -102.5 -6t-59.5 -24 q-21 -18 -35.5 -49.5t-40.5 -104.5q-1 -4 -8.5 -24.5t-12.5 -32.5q-9 -27 -20 -78q-6 -35 -16 -68q-9 -25 -33.5 -41t-54.5 -16q-9 0 -25 4q-39 10 -61 53q-17 31 -11 49zM432 1724q131 230 168 291q14 23 39.5 39.5t43.5 22.5t52 16q11 3 27.5 -2t25.5 -14q46 -46 74 -92 q81 -130 142 -240q4 -8 0.5 -25.5t-11.5 -23.5q-48 -29 -69 -21q-39 16 -72 66q-14 19 -27.5 41t-30 51t-24.5 43q-9 17 -32.5 17t-35.5 -17q-34 -56 -43 -66q-90 -104 -120 -131q-6 -6 -15.5 -10t-16 -5.5t-15 -3t-9.5 -1.5q-30 4 -45.5 26.5t-5.5 38.5zM473 721 q-5 -25 12 -49q21 -21 47 -21q1 0 4.5 1t4.5 1q6 0 18.5 1t18.5 1q17 1 88 11q37 4 53 28.5t18 77.5l-8 37q-16 74 -53 227q-1 7 -10 13t-17 6q-23 0 -31 -15q-7 -14 -22 -40t-18 -31q-32 -55 -46.5 -80.5t-33.5 -74.5t-25 -93z" />
<glyph unicode="&#xc4;" horiz-adv-x="1445" d="M10 176q-19 40 8 80q128 186 361 520l51 74q163 234 397 567q23 31 91 113q18 18 40 18q44 0 64 -41q80 -156 121 -352q24 -111 59 -319q32 -189 60 -320q40 -203 92 -373q20 -72 24 -88q11 -32 -16 -71q-42 -52 -98 -52q-13 0 -19 2q-15 3 -31.5 20t-19.5 32 q-58 255 -72 364q-19 160 -71 203q-25 21 -63 27t-114 8q-7 0 -21.5 1t-21.5 1h-14q-14 1 -54 3t-56 3q-50 4 -68 4q-127 0 -206 -57t-138 -191q-7 -12 -21 -45q-34 -90 -69 -131q-28 -35 -47 -44t-47 -9q-36 2 -63.5 16t-37.5 37zM637 1903q6 23 27 46t43 29q37 10 68 -30 t26 -93q-2 -2 -9.5 -10.5t-13 -13.5t-14 -11t-16.5 -8q-46 -12 -83 18t-28 73zM670 821q12 -30 43 -37q65 -7 96 -12q4 0 10.5 -1t9.5 -1h54q58 0 89.5 6.5t47.5 26.5q26 38 -4 151q-4 26 -8 41q-10 55 -27 99q-25 55 -78 82h-8q-16 0 -38.5 -15t-33.5 -31 q-34 -48 -123 -192q-12 -20 -28 -51q-19 -28 -2 -66zM1212 1829q-5 40 22 73t56 23q14 -4 28 -14t28 -23t18 -16q4 -46 -22 -81.5t-60 -33.5q-63 0 -70 72z" />
<glyph unicode="&#xc8;" horiz-adv-x="956" d="M6 375q57 323 80 569q9 112 9.5 175t-11.5 167q-4 23 -13.5 55.5t-11.5 40.5q-39 137 95 236q54 31 163 -6q80 -34 135.5 -42.5t110.5 2.5t150 46q30 12 85.5 20t107.5 4t61 -24q18 -49 20 -78.5t-12 -48.5t-49 -33q-111 -44 -297 -51q-297 -7 -365 -43q0 -58 -1 -174 t-1 -174v-49q0 -76 70 -84q63 -7 149 -25q35 -7 58.5 -36.5t11.5 -49.5q-28 -43 -74 -57q-22 -5 -44.5 -6.5t-60.5 -2.5t-46 -1q-43 -3 -70.5 -26.5t-34.5 -64.5q-42 -209 -51 -268q-6 -40 15 -73.5t59 -43.5q68 -21 139.5 -32t141.5 -8.5t112 22.5q55 29 168 49 q22 3 50.5 -6.5t35.5 -22.5q7 -17 0 -44.5t-21 -45.5q-43 -49 -100 -71q-200 -83 -471 -56q-156 18 -237.5 114.5t-55.5 246.5zM379 2101q-1 6 5.5 16.5t12.5 12.5q27 10 54 0q9 -3 24 -29q28 -47 84.5 -141t85.5 -141q12 -21 -3.5 -50.5t-47.5 -29.5q-5 3 -26.5 12 t-39.5 20.5t-28 26.5q-105 150 -121 303z" />
<glyph unicode="&#xc9;" horiz-adv-x="956" d="M6 375q-26 -150 55.5 -246.5t237.5 -114.5q271 -27 471 56q57 22 100 71q14 18 21 45.5t0 44.5q-7 13 -35.5 22.5t-50.5 6.5q-113 -20 -168 -49q-42 -20 -112 -22.5t-141.5 8.5t-139.5 32q-38 10 -59 43.5t-15 73.5q9 59 51 268q7 41 34.5 64.5t70.5 26.5q13 0 37.5 1 t39.5 1.5t36 2t38 5.5q46 14 74 57q12 20 -11.5 49.5t-58.5 36.5q-86 18 -149 25q-70 8 -70 84v49q0 58 1 174t1 174q68 36 365 43q186 7 297 51q35 14 49 33t12 48.5t-20 78.5q-9 20 -61 24t-107.5 -4t-85.5 -20q-95 -35 -150 -46t-110.5 -2.5t-135.5 42.5q-109 37 -163 6 q-134 -99 -95 -236q2 -8 11.5 -40.5t13.5 -55.5q12 -104 11.5 -167t-9.5 -175q-23 -246 -80 -569zM436 1829q29 47 85 141t85 141q15 25 25 29q27 10 53 0q6 -2 12.5 -12.5t5.5 -16.5q-16 -155 -120 -303q-10 -15 -28.5 -26.5t-40 -20.5t-26.5 -12q-32 0 -47.5 29.5 t-3.5 50.5z" />
<glyph unicode="&#xca;" horiz-adv-x="956" d="M6 375q57 323 80 569q9 112 9.5 175t-11.5 167q-4 23 -13.5 55.5t-11.5 40.5q-39 137 95 236q54 31 163 -6q80 -34 135.5 -42.5t110.5 2.5t150 46q30 12 85.5 20t107.5 4t61 -24q18 -49 20 -78.5t-12 -48.5t-49 -33q-111 -44 -297 -51q-297 -7 -365 -43q0 -58 -1 -174 t-1 -174v-49q0 -76 70 -84q63 -7 149 -25q35 -7 58.5 -36.5t11.5 -49.5q-28 -43 -74 -57q-22 -5 -44.5 -6.5t-60.5 -2.5t-46 -1q-43 -3 -70.5 -26.5t-34.5 -64.5q-42 -209 -51 -268q-6 -40 15 -73.5t59 -43.5q68 -21 139.5 -32t141.5 -8.5t112 22.5q55 29 168 49 q22 3 50.5 -6.5t35.5 -22.5q7 -17 0 -44.5t-21 -45.5q-43 -49 -100 -71q-200 -83 -471 -56q-156 18 -237.5 114.5t-55.5 246.5zM197 1855q131 230 168 291q14 23 39.5 39.5t43.5 22.5t52 16q11 3 27.5 -2t25.5 -14q46 -46 74 -92q73 -117 141 -240q5 -7 1 -25t-11 -24 q-48 -29 -70 -21q-39 16 -72 66q-14 19 -27.5 41.5t-29 50.5t-24.5 43q-9 17 -32.5 17t-35.5 -17q-32 -53 -43 -65q-90 -104 -121 -132q-6 -6 -15 -10t-16 -5.5t-15 -3t-9 -1.5q-30 4 -45.5 26.5t-5.5 38.5z" />
<glyph unicode="&#xcc;" horiz-adv-x="280" d="M2 2001q-1 6 5.5 16.5t12.5 12.5q27 10 54 0q9 -3 24 -29q28 -47 84.5 -141.5t85.5 -141.5q12 -21 -3.5 -50.5t-47.5 -29.5q-4 3 -26 12.5t-40 21t-28 26.5q-105 150 -121 303zM8 1331q-2 48 29 117q6 13 25 24t34 11q13 0 31.5 -12.5t24.5 -26.5q25 -67 28 -121 q1 -25 5 -85t5.5 -93.5t1 -82.5t-5.5 -89q-12 -99 2 -296.5t9 -303.5q4 -61 16 -279q5 -50 -21.5 -80t-76.5 -30q-15 0 -35.5 11t-24.5 23q-14 46 -14 125q-1 96 -3 271t-4 318.5t-5 271.5q-1 54 -10.5 162.5t-10.5 164.5z" />
<glyph unicode="&#xcd;" horiz-adv-x="280" d="M8 1331q1 -56 10.5 -164.5t10.5 -162.5q3 -128 5 -271.5t4 -318.5t3 -271q0 -79 14 -125q4 -12 24.5 -23t35.5 -11q50 0 76.5 30t21.5 80q-12 218 -16 279q5 106 -9 303.5t-2 296.5q5 40 5.5 89t-1 82.5t-5.5 93.5t-5 85q-3 54 -28 121q-6 14 -24.5 26.5t-31.5 12.5 q-15 0 -34 -11t-25 -24q-31 -69 -29 -117zM14 1718q28 47 85 141.5t85 141.5q15 25 25 29q27 10 53 0q6 -2 13 -12.5t6 -16.5q-16 -153 -121 -303q-10 -15 -28 -26.5t-40 -21t-26 -12.5q-32 0 -48 29.5t-4 50.5z" />
<glyph unicode="&#xce;" horiz-adv-x="360" d="M-92 1890q-3 32 20 70q113 194 181 291q16 24 44 41.5t56 17.5q79 0 96 -61q19 -58 64.5 -144.5t52.5 -101.5q26 -58 -14 -88q-22 -18 -52 -18t-57 18q-13 10 -26 31.5t-21.5 38.5t-26 27.5t-41.5 4.5q-18 -5 -34 -19t-37.5 -40.5t-30.5 -36.5q-31 -35 -68 -62t-59 -22 q-20 8 -32.5 23.5t-14.5 29.5zM80 385q0 23 1.5 56.5t3.5 72t3 53.5q29 528 10 918q-2 42 25 121q3 10 19.5 22t27.5 12q30 0 47 -20q44 -51 57 -112t13 -148q1 -70 4.5 -292t3.5 -343q0 -492 -4 -633q0 -20 -17.5 -43.5t-40.5 -40.5q-27 -18 -65.5 -7.5t-56.5 38.5 q-2 4 -6.5 12t-6.5 12t-5 13t-4.5 20t-2.5 27q-6 156 -6 262z" />
<glyph unicode="&#xd2;" horiz-adv-x="1087" d="M0 594q3 132 47.5 278.5t134.5 280.5q118 178 353 272q151 57 227 -92q51 -104 84 -151q325 -455 84 -953q-56 -118 -88 -159q-56 -73 -142 -99q-98 -28 -172 -37q-239 -24 -356 109q-169 187 -172 551zM164 428q15 -152 133 -264q27 -29 63 -48t68 -18q272 0 377 203 q58 119 72 322q0 29 -1 56t-6 57.5t-7.5 48t-12 53t-12 45.5t-15 52t-14.5 48q-26 95 -113 186q-46 49 -98.5 64.5t-98 1t-83.5 -43t-64 -67.5q-4 -7 -16 -25.5t-22.5 -35t-16.5 -29.5q-158 -334 -133 -606zM403 2001q-1 6 6 16.5t13 12.5q26 10 53 0q10 -4 25 -29 q29 -47 85.5 -141.5t84.5 -141.5q12 -21 -4 -50.5t-48 -29.5q-4 3 -26 12.5t-40 21t-28 26.5q-105 150 -121 303z" />
<glyph unicode="&#xd3;" horiz-adv-x="1087" d="M0 594q3 -364 172 -551q117 -133 356 -109q74 9 172 37q59 18 103.5 59.5t64.5 76t56 110.5l6 12q241 498 -84 953q-33 47 -84 151q-76 149 -227 92q-235 -94 -353 -272q-90 -134 -134.5 -280.5t-47.5 -278.5zM164 428q-25 272 133 606q6 13 16.5 29.5t22.5 35t16 25.5 q26 39 64 67.5t83.5 43t98 -1t98.5 -64.5q87 -91 113 -186q2 -6 14.5 -48t15 -52t12 -45.5t12 -53t7.5 -48t6 -57.5t1 -56q-14 -203 -72 -322q-105 -203 -377 -203q-32 -1 -68 18t-63 48q-118 112 -133 264zM416 1718q29 47 85 141.5t85 141.5q15 26 24 29q27 10 54 0 q6 -2 12.5 -12.5t5.5 -16.5q-16 -153 -121 -303q-10 -15 -28 -26.5t-40 -21t-26 -12.5q-32 0 -47.5 29.5t-3.5 50.5z" />
<glyph unicode="&#xd4;" horiz-adv-x="1087" d="M0 594q3 132 47.5 278.5t134.5 280.5q118 178 353 272q151 57 227 -92q51 -104 84 -151q325 -455 84 -953q-56 -118 -88 -159q-56 -73 -142 -99q-98 -28 -172 -37q-239 -24 -356 109q-169 187 -172 551zM164 428q15 -152 133 -264q27 -29 63 -48t68 -18q272 0 377 203 q58 119 72 322q0 29 -1 56t-6 57.5t-7.5 48t-12 53t-12 45.5t-15 52t-14.5 48q-26 95 -113 186q-46 49 -98.5 64.5t-98 1t-83.5 -43t-64 -67.5q-4 -7 -16 -25.5t-22.5 -35t-16.5 -29.5q-158 -334 -133 -606zM274 1642q131 230 168 291q14 23 40 39.5t43.5 22.5t52.5 16 q11 3 27.5 -2t25.5 -14q46 -46 74 -92q73 -117 141 -240q5 -7 1 -25t-11 -24q-48 -29 -70 -21q-39 16 -72 66q-14 19 -27.5 41t-30 51t-24.5 43q-9 17 -32 17t-35 -17q-32 -53 -43 -65q-90 -104 -121 -132q-6 -6 -15 -10t-16 -5.5t-15 -3t-9 -1.5q-30 4 -46 26.5t-6 38.5z " />
<glyph unicode="&#xd6;" horiz-adv-x="1136" d="M23 508q-72 345 83 631q87 158 105 188q10 18 17 56t21 64.5t48 39.5q21 8 97 45t127.5 49.5t107.5 5.5q61 -9 119 -53q142 -107 215 -258.5t100 -347.5q5 -36 5.5 -74t-0.5 -94t-1 -76q0 -18 -0.5 -51t-0.5 -60t1 -51q10 -238 -96 -387q-57 -80 -128.5 -117.5 t-145.5 -35t-160 23.5q-204 53 -337.5 177.5t-176.5 324.5zM152 690q20 -171 101 -287t239 -210q28 -13 98 -41q73 -27 137 12q31 17 41 22.5t32.5 20t30 23.5t22 26t20 34.5t11.5 42t9 54.5q8 80 4 176q-3 44 -7.5 126.5t-9.5 143.5t-12 117q-18 119 -73 238 q-31 66 -88.5 107t-120 49t-126 -18t-106.5 -85q-160 -227 -192 -416q-15 -82 -10 -135zM348 1962q9 31 34.5 60t53.5 26q45 -6 63 -43t7 -80q-5 -19 -26.5 -38.5t-41.5 -22.5q-40 -8 -70 25t-20 73zM786 1872q-4 24 4.5 41.5t17.5 24t26 16.5q26 14 58 -14.5t23 -57.5 q-6 -22 -25.5 -43t-37.5 -24q-21 -4 -41 9t-25 48z" />
<glyph unicode="&#xd9;" horiz-adv-x="1273" d="M0.5 1055q-0.5 29 1.5 147t2 133q0 16 14 74q8 34 38.5 57.5t49.5 8.5q20 -14 35 -36.5t15 -41.5q7 -232 4 -557v-59.5v-62.5t0.5 -56t3 -60.5t6 -55t9.5 -61t14 -57.5q15 -62 28 -82q85 -145 172 -143q112 3 174 121q108 201 142 483q3 24 23.5 202.5t35.5 272.5 q15 121 37 156q10 15 29.5 19.5t43.5 -10t37 -50.5q17 -53 17 -99q1 -79 -1.5 -226t-2.5 -204v-430q0 -66 12 -125q26 -120 168 -108q69 7 125 4q11 0 33 -33q3 -4 2.5 -11.5t-4.5 -10.5q-118 -130 -291 -127q-48 0 -84 30.5t-74 83.5q-18 25 -45 77t-33 63q-8 -79 -69 -127 q-119 -100 -236 -129q-177 -37 -250 57q-109 145 -135 295q-12 66 -21 131.5t-14 145.5t-8 127t-3 146t-0.5 128zM352 1884q-1 6 6 16.5t13 12.5q27 10 53 0q10 -4 25 -29q29 -47 84.5 -141t84.5 -141q12 -21 -3.5 -50.5t-47.5 -29.5q-5 3 -26.5 12t-39.5 20.5t-28 26.5 q-105 150 -121 303z" />
<glyph unicode="&#xda;" horiz-adv-x="1273" d="M0.5 1055q0.5 -29 0.5 -128t3 -146t8 -127t14 -145.5t21 -131.5q26 -150 135 -295q73 -94 250 -57q117 29 236 129q61 48 69 127q6 -11 33 -63t45 -77q24 -34 43 -55.5t50 -40t65 -18.5q173 -3 291 127q4 3 4.5 10.5t-2.5 11.5q-22 33 -33 33q-56 3 -125 -4 q-142 -12 -168 108q-12 58 -12 125v430q0 57 2.5 204t1.5 226q0 46 -17 99q-13 36 -37 50.5t-43.5 10t-29.5 -19.5q-22 -35 -37 -156q-15 -94 -35.5 -272.5t-23.5 -202.5q-34 -282 -142 -483q-62 -118 -174 -121q-87 -2 -172 143q-13 20 -28 82q-9 34 -15.5 71.5t-10 62 t-5.5 73t-2 62.5v74.5v68.5q3 325 -4 557q0 19 -15 41.5t-35 36.5q-19 15 -49.5 -8.5t-38.5 -57.5q-14 -58 -14 -74q0 -15 -2 -133t-1.5 -147zM383 1710q28 47 84.5 141.5t85.5 141.5q14 24 25 28q26 10 53 0q6 -2 12.5 -12t5.5 -16q-16 -153 -121 -303q-10 -15 -28 -26.5 t-40 -21t-26 -12.5q-32 0 -47.5 29.5t-3.5 50.5z" />
<glyph unicode="&#xdb;" horiz-adv-x="1273" d="M0.5 1055q-0.5 29 1.5 147t2 133q0 16 14 74q8 34 38.5 57.5t49.5 8.5q20 -14 35 -36.5t15 -41.5q7 -232 4 -557v-59.5v-62.5t0.5 -56t3 -60.5t6 -55t9.5 -61t14 -57.5q15 -62 28 -82q85 -145 172 -143q112 3 174 121q108 201 142 483q3 24 23.5 202.5t35.5 272.5 q15 121 37 156q10 15 29.5 19.5t43.5 -10t37 -50.5q17 -53 17 -99q1 -79 -1.5 -226t-2.5 -204v-430q0 -66 12 -125q26 -120 168 -108q69 7 125 4q11 0 33 -33q3 -4 2.5 -11.5t-4.5 -10.5q-118 -130 -291 -127q-48 0 -84 30.5t-74 83.5q-18 25 -45 77t-33 63q-8 -79 -69 -127 q-119 -100 -236 -129q-177 -37 -250 57q-109 145 -135 295q-12 66 -21 131.5t-14 145.5t-8 127t-3 146t-0.5 128zM164 1683q131 229 168 291q14 23 39.5 39.5t43.5 22.5t52 16q11 3 27.5 -2t25.5 -14q46 -46 74 -92q74 -117 141 -240q5 -7 1 -25t-11 -24q-48 -29 -70 -21 q-37 15 -71 66q-14 19 -27.5 41t-30 51t-24.5 43q-9 17 -32.5 17t-35.5 -17q-34 -56 -43 -66q-86 -99 -121 -131q-6 -6 -15 -10t-16 -5.5t-15 -3t-9 -1.5q-30 4 -45.5 26.5t-5.5 38.5z" />
<glyph unicode="&#xdc;" horiz-adv-x="1087" d="M0 1391q-2 25 14 71q10 24 39 31q9 3 24 0t19 -10q36 -45 49 -86q47 -149 43 -402q-1 -47 5 -559q0 -62 14 -151q10 -57 38 -83.5t70 -4.5q126 65 215 167.5t115 231.5q19 97 55.5 276.5t44.5 219.5q11 55 46 198q13 53 30 68q41 35 82 41q10 1 26 -17.5t19 -33.5 q10 -100 2 -177q-8 -68 -25.5 -205t-29.5 -244.5t-18 -205.5q-2 -28 -0.5 -55.5t8.5 -65t10 -54.5t15 -66t14 -56q6 -26 73 -63q62 -38 13 -107q-40 -61 -119.5 -61t-114.5 61q-15 26 -22 45q-14 30 -41.5 89t-42.5 89q-142 -110 -160 -122q-19 -12 -97 -68.5t-126 -81.5 q-46 -23 -101.5 -1.5t-79.5 69.5q-74 153 -77 385v407q-8 95 -16 274.5t-13 256.5zM295 1905q-6 32 27 55t59 4q42 -29 37 -78q-1 -26 -24.5 -36.5t-45.5 -6.5q-17 3 -33.5 23t-19.5 39zM760 1853q-12 28 14.5 66t61.5 41q26 2 44.5 -12.5t22.5 -42.5q9 -72 -61 -88 q-62 -10 -82 36z" />
<glyph unicode="&#xdd;" horiz-adv-x="931" d="M-31 162q3 -53 64 -68q158 -34 221 -41q182 -22 308.5 76t158.5 283q58 332 184 682q70 194 103 311q14 51 -4 121q-3 13 -22.5 27t-35.5 16q-14 2 -34.5 -9t-26.5 -24q-19 -39 -60 -166q-28 -78 -79 -223.5t-72 -204.5q-13 -34 -28.5 -47t-35.5 -8t-49 28q-6 5 -19.5 14 t-23.5 17t-16 17q-26 42 -119 157t-127 191q-30 63 -109 198q-28 45 -59.5 62.5t-60.5 3.5q-34 -14 -41.5 -48t12.5 -81q24 -60 31 -70q23 -36 75.5 -125t83 -137.5t82.5 -116t105 -116.5t133 -152q50 -67 55 -111q27 -184 -94 -329q-47 -56 -109.5 -70.5t-144.5 -3.5 q-18 0 -53 4q-12 2 -99 6q-41 0 -68.5 -19t-25.5 -44zM338 1718q28 47 85 141.5t85 141.5q15 26 24 29q27 10 54 0q6 -2 12.5 -12.5t5.5 -16.5q-16 -153 -121 -303q-10 -15 -28 -26.5t-40 -21t-26 -12.5q-32 0 -47.5 29.5t-3.5 50.5z" />
<glyph unicode="&#xdf;" horiz-adv-x="1009" d="M10 186zM10 186h4h-4q22 216 45 580q13 193 6 451q-6 182 140 262q34 18 109.5 65.5t117.5 67.5q67 31 129 8.5t98 -86.5q79 -143 47 -281q-5 -27 -14 -56.5t-21.5 -66.5t-17.5 -55q-27 -72 -20.5 -96.5t69.5 -67.5q147 -102 258 -329q21 -43 26.5 -101t-5.5 -104 q-31 -137 -111 -297q-38 -73 -106.5 -90t-141.5 26q-112 65 -150 96q-70 56 -101 128q-7 22 20 67q5 6 21.5 9t25.5 -3q30 -19 95.5 -63t101.5 -66q35 -22 75.5 -12t63.5 45q37 60 45 94q54 224 -135 406q-32 30 -119 47q-30 6 -89 7.5t-69 2.5q-23 3 -40 32.5t-7 49.5 q15 26 48 79t47 79q6 11 20.5 35.5t22.5 38.5t19 34.5t18.5 39.5t13.5 38q24 82 8.5 160.5t-51.5 81.5q-79 6 -166 -67t-96 -154q-2 -19 -2 -41t1 -49t1 -41q5 -212 -31 -527q-13 -102 -17 -228.5t-2 -230t0 -229.5v-70.5t-4 -87.5q-3 -29 -24 -46t-49 -13q-22 5 -45.5 21 t-32.5 34q-23 50 -23 129q-2 58 -2 344z" />
<glyph unicode="&#xe0;" horiz-adv-x="1071" d="M0.5 406.5q10.5 106.5 50 196t118 160t185.5 107.5q205 71 398 -100q46 -41 50 -104t-34 -121q-79 -129 -86 -236q-6 -91 61 -155t158 -54q10 1 29 7t28 8q43 0 68 -6q9 -3 19.5 -13.5t13.5 -19.5q2 -11 -3 -25t-12 -20q-19 -14 -56.5 -36t-49.5 -30 q-96 -56 -185.5 -42.5t-154.5 97.5q-41 53 -78.5 54.5t-85.5 -31.5q-172 -101 -330 29q-69 58 -86 121q-28 107 -17.5 213.5zM158 342q0 -35 2 -51q1 -90 62 -128t143 -3q110 48 145 164q18 73 25 122q17 111 22 199q3 32 -22.5 54.5t-59.5 19.5q-64 -4 -96 -17 q-218 -89 -221 -360zM442 1462q-1 6 6 16.5t13 12.5q27 10 53 0q10 -4 25 -29q29 -47 85 -141t85 -141q12 -21 -4 -50.5t-48 -29.5q-5 3 -26.5 12t-39.5 20.5t-28 26.5q-105 150 -121 303z" />
<glyph unicode="&#xe1;" horiz-adv-x="1071" d="M0.5 406.5q-10.5 -106.5 17.5 -213.5q17 -63 86 -121q158 -130 330 -29q48 33 85.5 31.5t78.5 -54.5q65 -84 154.5 -97.5t185.5 42.5q12 8 49.5 30t56.5 36q7 6 12 20t3 25q-3 9 -13.5 19.5t-19.5 13.5q-25 6 -68 6q-9 -2 -28 -8t-29 -7q-91 -10 -158 54t-61 155 q7 107 86 236q38 58 34 121t-50 104q-193 171 -398 100q-107 -37 -185.5 -107.5t-118 -160t-50 -196zM158 342q3 271 221 360q32 13 96 17q34 3 59.5 -19.5t22.5 -54.5q-5 -88 -22 -199q-7 -49 -25 -122q-35 -116 -145 -164q-82 -35 -143 3t-62 128q-2 16 -2 51zM408 1309 q28 47 84.5 141t85.5 141q15 26 24 29q26 10 53 0q6 -2 13 -12.5t6 -16.5q-16 -153 -121 -303q-10 -15 -28 -26.5t-39.5 -20.5t-26.5 -12q-32 0 -47.5 29.5t-3.5 50.5z" />
<glyph unicode="&#xe2;" horiz-adv-x="1056" d="M0.5 406.5q10.5 106.5 50 196t118 160t185.5 107.5q205 71 398 -100q46 -41 50 -104t-34 -121q-79 -129 -86 -236q-6 -91 61 -155t158 -54q10 1 29 7t28 8q43 0 68 -6q9 -3 19.5 -13.5t13.5 -19.5q2 -11 -3 -25t-12 -20q-19 -14 -56.5 -36t-49.5 -30 q-96 -56 -185.5 -42.5t-154.5 97.5q-41 53 -78.5 54.5t-85.5 -31.5q-172 -101 -330 29q-69 58 -86 121q-28 107 -17.5 213.5zM158 342q0 -35 2 -51q1 -90 62 -128t143 -3q110 48 145 164q18 73 25 122q17 111 22 199q3 32 -22.5 54.5t-59.5 19.5q-64 -4 -96 -17 q-218 -89 -221 -360zM217 1290q131 229 168 291q14 23 39.5 39.5t43.5 22.5t52 16q10 3 27 -2.5t26 -14.5q46 -46 74 -92q78 -124 141 -239q5 -7 1 -25t-11 -24q-48 -29 -69 -21q-39 16 -72 66q-14 19 -27.5 41t-30 51t-24.5 43q-9 17 -32.5 17t-35.5 -17q-34 -56 -43 -66 q-90 -104 -120 -131q-6 -6 -15.5 -10t-16 -5.5t-15 -3t-9.5 -1.5q-30 4 -45.5 26.5t-5.5 38.5z" />
<glyph unicode="&#xe4;" horiz-adv-x="1198" d="M10 334q0 320 291 518q24 18 70 18q14 0 22 -2q112 -15 172 -47q62 -29 144 -63q70 -29 99.5 -47.5t39.5 -46.5q10 -31 0 -88.5t-41 -161.5q-21 -74 14 -121t113 -47q21 0 33 2q40 6 69 14q10 4 33 8q12 4 16 4q17 7 29 7h2q29 -4 35 -15q14 -49 2 -61 q-88 -119 -274 -119h-19h-10q-100 0 -145 59q-30 43 -70 43q-22 0 -55 -20q-4 -3 -13.5 -9t-13.5 -9q-104 -66 -152 -84q-55 -19 -106 -19q-120 0 -202.5 83.5t-82.5 203.5zM152 365q0 -84 41 -125q36 -39 110 -39h21q97 6 196 96q101 84 127 184q16 68 -16 123 q-34 52 -99 68q-50 8 -71 8q-125 0 -215 -90q-91 -88 -94 -225zM441.5 1357.5q-0.5 49.5 56.5 80.5q7 5 24 8q25 0 43.5 -14.5t25 -26.5t19.5 -41q34 -70 -14 -92q-18 -9 -47 -8.5t-47 10.5q-60 34 -60.5 83.5zM811 1266q3 34 27.5 63t48.5 23q13 -2 25 -9.5t24.5 -18.5 t15.5 -13q6 -45 -14.5 -72t-56.5 -29q-26 -3 -48 15.5t-22 40.5z" />
<glyph unicode="&#xe8;" horiz-adv-x="1114" d="M4 139q19 34 30 69.5t14 78.5t3.5 68.5t-2.5 80t-4 72.5q-3 90 18 176q2 7 5.5 18.5t23 43.5t47.5 59.5t81.5 57t121.5 44.5q79 17 141.5 8t122.5 -47q54 -35 79.5 -81t23.5 -91t-25 -90q-28 -51 -54.5 -87.5t-78.5 -94.5q-21 -21 -64.5 -60.5t-64.5 -60.5 q-4 -5 -18 -18.5t-24.5 -25.5t-14.5 -21q23 -6 81 -13q198 -18 451 56q96 29 119 34q9 1 21.5 -7t17.5 -17q4 -9 2 -24t-8 -23q-4 -4 -14 -14.5t-15.5 -15.5t-15 -14t-16.5 -14t-16 -11.5t-18 -10.5q-188 -93 -438 -111q-16 1 -51.5 2t-63.5 4t-59 9q-53 13 -72.5 17.5 t-58.5 8.5t-69 -3t-62 -25q-26 -13 -58 17.5t-18 55.5zM203 473q3 -46 35 -67t69 2q111 68 153 106q65 60 91 137q9 29 -5 62.5t-42 42.5q-68 17 -96 12q-110 -22 -157.5 -84t-47.5 -186v-25zM303 1483q-1 6 6 16t13 12q26 10 53 0q9 -4 24 -28q29 -47 85.5 -141.5 t84.5 -141.5q12 -21 -3.5 -50.5t-47.5 -29.5q-4 3 -26 12.5t-40 21t-28 26.5q-105 150 -121 303z" />
<glyph unicode="&#xe9;" horiz-adv-x="1114" d="M4 139q-14 -25 18 -55.5t58 -17.5q32 18 62 25t69 3t58.5 -8.5t72.5 -17.5q31 -6 59 -9t63.5 -4t51.5 -2q250 18 438 111q11 5 20.5 11.5t21 17t17 15.5t19.5 19l17 17q6 8 8 23t-2 24q-5 9 -17.5 17t-21.5 7q-23 -5 -119 -34q-253 -74 -451 -56q-58 7 -81 13 q4 9 14.5 21t24.5 25.5t18 18.5q21 21 64.5 60.5t64.5 60.5q52 58 78.5 94.5t54.5 87.5q23 45 25 90t-23.5 91t-79.5 81q-60 38 -122.5 47t-141.5 -8q-68 -15 -121.5 -44t-81.5 -58.5t-46.5 -57.5t-24.5 -45l-5 -18q-21 -86 -18 -176q1 -18 4 -72.5t2.5 -80t-3.5 -68.5 t-14 -78.5t-30 -69.5zM203 473v25q0 124 47.5 186t157.5 84q28 5 96 -12q28 -9 42 -42.5t5 -62.5q-11 -34 -32 -65.5t-37.5 -50.5t-53.5 -47t-50.5 -36.5t-59.5 -36.5q-7 -5 -11 -7q-37 -23 -69 -2t-35 67zM393 1262q28 47 85 141t85 141q15 25 25 29q26 10 53 0 q6 -2 12.5 -12.5t5.5 -16.5q-16 -155 -120 -303q-10 -15 -28.5 -26.5t-40 -20.5t-26.5 -12q-32 0 -47.5 29.5t-3.5 50.5z" />
<glyph unicode="&#xea;" horiz-adv-x="1114" d="M4 139q19 34 30 69.5t14 78.5t3.5 68.5t-2.5 80t-4 72.5q-3 90 18 176q2 7 5.5 18.5t23 43.5t47.5 59.5t81.5 57t121.5 44.5q79 17 141.5 8t122.5 -47q54 -35 79.5 -81t23.5 -91t-25 -90q-28 -51 -54.5 -87.5t-78.5 -94.5q-21 -21 -64.5 -60.5t-64.5 -60.5 q-4 -5 -18 -18.5t-24.5 -25.5t-14.5 -21q23 -6 81 -13q198 -18 451 56q96 29 119 34q9 1 21.5 -7t17.5 -17q4 -9 2 -24t-8 -23q-4 -4 -14 -14.5t-15.5 -15.5t-15 -14t-16.5 -14t-16 -11.5t-18 -10.5q-188 -93 -438 -111q-16 1 -51.5 2t-63.5 4t-59 9q-53 13 -72.5 17.5 t-58.5 8.5t-69 -3t-62 -25q-26 -13 -58 17.5t-18 55.5zM100 1116q131 229 168 291q14 23 39.5 39.5t43.5 22.5t52 16q10 3 27.5 -2.5t26.5 -14.5q44 -44 73 -92q86 -137 142 -239q5 -7 1 -25.5t-11 -24.5q-47 -28 -70 -20q-39 16 -72 66q-14 19 -27.5 41t-30 51t-24.5 43 q-9 17 -32 17t-35 -17q-34 -56 -43 -66q-86 -99 -121 -131q-6 -6 -15 -10t-16 -5.5t-15 -3t-9 -1.5q-30 4 -46 26.5t-6 38.5zM203 473q3 -46 35 -67t69 2q111 68 153 106q65 60 91 137q9 29 -5 62.5t-42 42.5q-68 17 -96 12q-110 -22 -157.5 -84t-47.5 -186v-25z" />
<glyph unicode="&#xeb;" horiz-adv-x="1114" />
<glyph unicode="&#xec;" horiz-adv-x="366" d="M-70 1530q-1 6 6 16.5t13 12.5q27 10 53 0q10 -4 25 -29q28 -47 85 -141.5t85 -141.5q12 -21 -4 -50.5t-48 -29.5q-4 3 -26 12.5t-40 21t-28 26.5q-105 150 -121 303zM23.5 172.5q-0.5 27.5 1.5 80.5t2 73q0 59 3 130t6 115.5t10 134.5t9 121q0 32 21 72q5 8 17 15.5 t22 7.5q11 2 26 -3t19 -12q4 -8 14 -27.5t15 -30t10 -26.5t6 -30q3 -53 3.5 -109.5t-0.5 -135t-1 -110.5q0 -24 2.5 -150.5t-0.5 -152.5q-3 -54 -35 -117q-8 -12 -27 -21.5t-36 -8.5q-14 2 -31.5 14t-24.5 27q-16 33 -23.5 74.5t-8 69zM51 1278q-3 -35 12 -60.5t43 -31.5 q29 -4 53.5 18t24.5 53t-22 56.5t-49 25.5q-59 -3 -62 -61z" />
<glyph unicode="&#xed;" horiz-adv-x="366" d="M23.5 172.5q0.5 -27.5 8 -69t23.5 -74.5q7 -15 24.5 -27t31.5 -14q17 -1 36 8.5t27 21.5q32 63 35 117q3 26 0.5 152.5t-2.5 150.5q0 32 1 110.5t0.5 135t-3.5 109.5q-1 14 -6 30t-10 26.5t-15 30t-14 27.5q-4 7 -19 12t-26 3q-10 0 -22 -7.5t-17 -15.5q-21 -40 -21 -72 q-2 -31 -9 -121t-10 -134.5t-6 -115.5t-3 -130q0 -20 -2 -73t-1.5 -80.5zM43 1274q29 47 85 141t85 141q15 25 25 29q26 10 53 0q6 -2 12.5 -12.5t5.5 -16.5q-16 -153 -121 -303q-10 -15 -28 -26.5t-39.5 -20.5t-26.5 -12q-32 0 -47.5 29.5t-3.5 50.5zM51 1278 q-3 -35 12 -60.5t43 -31.5q29 -4 53.5 18t24.5 53t-22 56.5t-49 25.5q-59 -3 -62 -61z" />
<glyph unicode="&#xee;" horiz-adv-x="366" d="M-131 1290q76 192 141 320q19 34 66 36t69 -30q104 -143 189 -293q5 -12 3 -41t-13 -45q-17 -24 -55 -20.5t-50 28.5q-14 22 -38 67t-38 66q0 1 -1.5 4t-2.5 4t-2.5 4t-2.5 4t-3 3.5t-4 3.5t-5 2t-6 1.5t-7 0.5q-15 -2 -31 -23q-12 -16 -47 -66.5t-56 -76.5 q-8 -10 -25.5 -18t-33.5 -7q-21 2 -37.5 28.5t-9.5 47.5zM75.5 627q-2.5 148 0.5 178q0 38 22 62t47 12q52 -25 58 -58q25 -147 61 -438q2 -18 7.5 -57t8.5 -61t5.5 -55t1.5 -60q0 -66 -45 -136q-7 -13 -32.5 -21t-45.5 -5t-42.5 19t-23.5 30q-14 78 -18 235q-2 29 -2 177 q0 30 -2.5 178z" />
<glyph unicode="&#xf2;" horiz-adv-x="925" d="M4 475q-18 303 217 467q124 86 270 65t234 -143q192 -268 94 -612q-41 -146 -225 -215q-162 -63 -371 -10q-61 16 -123 98q-114 160 -96 350zM166 463q2 -18 5 -53.5t5 -53.5q13 -99 94.5 -156t178.5 -38q149 32 214 132.5t33 246.5q-13 46 -43 127q-31 75 -97.5 114.5 t-143 32t-133.5 -60.5q-119 -111 -113 -291zM324 1591q-1 6 5.5 16.5t12.5 12.5q26 10 53 0q10 -4 25 -29q29 -47 85 -141t85 -141q12 -21 -3.5 -50.5t-47.5 -29.5q-5 3 -26.5 12t-40 20.5t-28.5 26.5q-104 148 -120 303z" />
<glyph unicode="&#xf3;" horiz-adv-x="925" d="M4 475q-18 -190 96 -350q62 -82 123 -98q209 -53 371 10q184 69 225 215q98 344 -94 612q-88 122 -234 143t-270 -65q-235 -164 -217 -467zM166 463q-6 180 113 291q57 53 133.5 60.5t143 -32t97.5 -114.5q30 -81 43 -127q32 -146 -33 -246.5t-214 -132.5 q-97 -19 -178.5 38t-94.5 156q-2 18 -5 53.5t-5 53.5zM336 1309q28 47 85 141t85 141q15 26 24 29q27 10 54 0q6 -2 12.5 -12.5t5.5 -16.5q-16 -153 -121 -303q-10 -15 -28 -26.5t-39.5 -20.5t-26.5 -12q-32 0 -47.5 29.5t-3.5 50.5z" />
<glyph unicode="&#xf4;" horiz-adv-x="925" d="M4 475q-18 303 217 467q124 86 270 65t234 -143q192 -268 94 -612q-41 -146 -225 -215q-162 -63 -371 -10q-61 16 -123 98q-114 160 -96 350zM131 1243q131 229 168 291q14 23 39.5 39.5t43.5 22.5t52 16q10 3 27 -2.5t26 -14.5q46 -46 74 -92q78 -124 141 -239 q5 -7 1 -25.5t-11 -24.5q-47 -28 -69 -20q-39 16 -72 66q-14 19 -27.5 41t-30 51t-24.5 43q-9 17 -32.5 17t-35.5 -17q-34 -56 -43 -66q-90 -104 -120 -131q-6 -6 -15.5 -10t-16 -5.5t-15 -3t-9.5 -1.5q-30 4 -45.5 26.5t-5.5 38.5zM166 463q2 -18 5 -53.5t5 -53.5 q13 -99 94.5 -156t178.5 -38q149 32 214 132.5t33 246.5q-13 46 -43 127q-31 75 -97.5 114.5t-143 32t-133.5 -60.5q-119 -111 -113 -291z" />
<glyph unicode="&#xf6;" horiz-adv-x="798" d="M2 410q-15 262 188 405q71 49 153 58t158 -23.5t126 -101.5q167 -232 82 -531q-36 -128 -195 -186q-138 -55 -321 -8q-54 14 -107 83q-99 141 -84 304zM143 399q3 -45 9 -92q12 -86 82 -135.5t153 -32.5q129 28 186 115t29 213q-13 46 -37 111q-27 65 -85 98.5t-124 27 t-116 -52.5q-104 -95 -97 -252zM295 1239q0 54 49 66q32 9 58.5 -18.5t29.5 -78.5q0 -13 -15.5 -28t-33.5 -21q-30 -10 -58 15.5t-30 64.5zM637 1161q0 28 27 52t49 14q19 -7 35 -20.5t16 -26.5q0 -41 -23.5 -65t-52.5 -19q-26 4 -39.5 22t-11.5 43z" />
<glyph unicode="&#xf9;" horiz-adv-x="1019" d="M0 743q-3 34 19.5 61.5t58.5 33.5q63 4 72 -31q14 -45 28 -141q6 -58 12.5 -142.5t13 -151t15.5 -128.5q9 -63 52.5 -90.5t111.5 -18.5q134 22 197 127.5t30 247.5q-5 23 -19.5 84.5t-21.5 99.5q-9 55 27.5 76t71.5 8q18 -8 32.5 -20.5t22.5 -23.5t17 -33.5t12.5 -34.5 t11.5 -43q30 -106 49 -195q7 -33 15.5 -90.5t11.5 -75.5q1 -6 4.5 -23.5t4.5 -21.5t4.5 -17t5.5 -16t6.5 -12t9 -11t11 -7.5t14.5 -7.5t18.5 -4.5t23.5 -4.5q98 -12 117 -18q35 -8 35 -31q0 -20 -10 -30t-31 -17q-33 -10 -78 -27t-81.5 -28t-76.5 -15q-27 -3 -65 31 q-12 10 -27.5 32.5t-28.5 37.5t-26 16q-18 0 -53.5 -28t-51.5 -35q-104 -49 -164 -60q-135 -19 -212.5 28.5t-118.5 176.5q-19 63 -29 147q-19 167 -41 426zM279 1352q-1 6 5.5 16t12.5 12q27 10 53 0q11 -4 25 -28q28 -47 84.5 -141.5t85.5 -141.5q12 -21 -3.5 -50.5 t-47.5 -29.5q-5 3 -26.5 12.5t-40 21t-28.5 26.5q-104 148 -120 303z" />
<glyph unicode="&#xfa;" horiz-adv-x="1019" d="M0 743q22 -259 41 -426q10 -84 29 -147q41 -129 118.5 -176.5t212.5 -28.5q60 11 164 60q16 7 51.5 35t53.5 28q13 -1 26 -16t28.5 -37.5t27.5 -32.5q38 -34 65 -31q40 4 76.5 15t81.5 28t78 27q21 7 31 17t10 30q0 23 -35 31q-19 6 -117 18q-13 2 -23.5 4.5t-18.5 4.5 t-14.5 7.5t-11 7.5t-9 11t-6.5 12t-5.5 16t-4.5 17t-4.5 21.5t-4.5 23.5q-3 18 -11.5 75.5t-15.5 90.5q-19 89 -49 195q-8 31 -11.5 43t-12.5 34.5t-17 33.5t-22.5 23.5t-32.5 20.5q-35 13 -71.5 -8t-27.5 -76q7 -38 21.5 -99.5t19.5 -84.5q33 -142 -30 -247.5t-197 -127.5 q-68 -9 -111.5 18.5t-52.5 90.5q-9 62 -15.5 128.5t-13 151t-12.5 142.5q-14 96 -28 141q-9 35 -72 31q-36 -6 -58.5 -33.5t-19.5 -61.5zM268 1079q28 47 85 141.5t85 141.5q15 25 25 29q27 10 53 0q6 -2 13 -12.5t6 -16.5q-16 -153 -121 -303q-10 -15 -28.5 -26.5t-40 -21 t-26.5 -12.5q-32 0 -47.5 29.5t-3.5 50.5z" />
<glyph unicode="&#xfb;" horiz-adv-x="1019" d="M0 743q-3 34 19.5 61.5t58.5 33.5q63 4 72 -31q14 -45 28 -141q6 -58 12.5 -142.5t13 -151t15.5 -128.5q9 -63 52.5 -90.5t111.5 -18.5q134 22 197 127.5t30 247.5q-5 23 -19.5 84.5t-21.5 99.5q-9 55 27.5 76t71.5 8q18 -8 32.5 -20.5t22.5 -23.5t17 -33.5t12.5 -34.5 t11.5 -43q30 -106 49 -195q7 -33 15.5 -90.5t11.5 -75.5q1 -6 4.5 -23.5t4.5 -21.5t4.5 -17t5.5 -16t6.5 -12t9 -11t11 -7.5t14.5 -7.5t18.5 -4.5t23.5 -4.5q98 -12 117 -18q35 -8 35 -31q0 -20 -10 -30t-31 -17q-33 -10 -78 -27t-81.5 -28t-76.5 -15q-27 -3 -65 31 q-12 10 -27.5 32.5t-28.5 37.5t-26 16q-18 0 -53.5 -28t-51.5 -35q-104 -49 -164 -60q-135 -19 -212.5 28.5t-118.5 176.5q-19 63 -29 147q-19 167 -41 426zM16 1057q131 229 168 291q14 23 40 39.5t42.5 22t52.5 15.5q11 3 28 -2t26 -14q44 -44 73 -92q81 -130 142 -240 q5 -7 1 -25t-11 -24q-47 -28 -70 -20q-40 16 -72 65q-14 19 -27.5 41t-30 51t-24.5 43q-9 17 -32 17t-35 -17q-32 -53 -43 -65q-86 -99 -121 -131q-11 -10 -55 -21q-30 4 -46 27t-6 39z" />
<glyph unicode="&#xfc;" horiz-adv-x="1089" d="M-0.5 482q0.5 50 1 80.5t2.5 92.5t3 84q3 56 47 86q28 17 55.5 11t32.5 -29q2 -13 19 -172q1 -15 1 -32.5t-0.5 -51t-0.5 -62.5q1 -12 -3 -79.5t5 -121.5t39 -104q19 -29 50 -36t56 14q2 1 9.5 7.5t9.5 10.5q80 82 125 158t49 170q3 133 73 225q28 33 74 37q41 4 55 -25 q15 -26 16 -60.5t-4.5 -59t-17.5 -60.5q-47 -127 -26 -301q6 -42 35.5 -67t70.5 -19q46 5 138.5 19.5t138.5 19.5q13 1 33 -9t22 -18q1 -15 -7 -34.5t-20 -30.5q-153 -121 -407 -107q-26 0 -74 19q-17 8 -42 29t-44 36t-29 13q-26 -6 -63 -48.5t-47 -50.5 q-67 -50 -143.5 -40.5t-129.5 73.5q-86 104 -96 258q-3 41 -5 83t-1.5 92zM270 1300q-4 18 9.5 32.5t37.5 17.5q28 4 60.5 -4t32.5 -31t-21.5 -40.5t-52.5 -17.5q-24 0 -43 11t-23 32zM573 1294q-7 18 15 41t45 25q22 0 44 -23.5t13 -40.5q-7 -15 -13 -23.5t-17 -15 t-27 -6.5q-46 0 -60 43z" />
<glyph unicode="&#xfd;" horiz-adv-x="815" d="M-39 -504q0 -40 29 -65q98 -88 181.5 -134t188.5 -47q125 -3 212 70t100 197q4 29 4 62.5t-2 75t-2 64.5q-1 49 -6 165.5t-5.5 181t9 160t32.5 173.5q30 108 37 187q6 94 -4 141q-4 16 -16.5 23.5t-23.5 6.5t-17 -1q-46 -9 -60 -31q-16 -29 -28 -96q-3 -18 -15 -89.5 t-20 -109.5q-40 -179 -166 -244q-35 -21 -73.5 -10t-55.5 47q-37 85 -43 117q-7 37 -24.5 140.5t-30.5 158.5q-20 91 -64 215q-3 8 -18.5 15.5t-22.5 4.5q-17 -7 -33.5 -19.5t-17.5 -23.5q-10 -58 26 -283t66 -312q20 -56 28 -79.5t26 -56.5t24 -43t30 -24.5t35.5 -15t50 -1 t63.5 3t85 11.5q21 5 25 4q33 -19 35 -29q4 -34 16.5 -123.5t19 -153t7.5 -124.5q3 -138 -73.5 -191.5t-209.5 -11.5q-84 26 -151 86q-50 42 -80 59q-21 11 -45 -8q-23 -19 -23 -43zM281 1024q28 47 84.5 141.5t85.5 141.5q15 24 24 28q27 10 53 0q6 -2 13 -12t6 -16 q-16 -153 -121 -303q-10 -15 -28 -26.5t-40 -21t-26 -12.5q-32 0 -47.5 29.5t-3.5 50.5z" />
<glyph unicode="&#x2c6;" horiz-adv-x="1259" d="M598 1946q115 201 168 290q14 23 39.5 39.5t43.5 22.5t52 16q11 3 27.5 -2t25.5 -14q46 -46 74 -92q74 -117 141 -240q5 -7 1 -25t-11 -24q-48 -29 -69 -21q-39 16 -72 66q-14 19 -27.5 41t-30 51t-24.5 43q-9 17 -32.5 17t-35.5 -17q-32 -53 -43 -65q-90 -104 -120 -131 q-11 -10 -56 -21q-30 4 -45.5 27t-5.5 39z" />
<glyph unicode="&#x2000;" horiz-adv-x="1157" />
<glyph unicode="&#x2001;" horiz-adv-x="2315" />
<glyph unicode="&#x2002;" horiz-adv-x="1157" />
<glyph unicode="&#x2003;" horiz-adv-x="2315" />
<glyph unicode="&#x2004;" horiz-adv-x="771" />
<glyph unicode="&#x2005;" horiz-adv-x="578" />
<glyph unicode="&#x2006;" horiz-adv-x="385" />
<glyph unicode="&#x2007;" horiz-adv-x="385" />
<glyph unicode="&#x2008;" horiz-adv-x="289" />
<glyph unicode="&#x2009;" horiz-adv-x="463" />
<glyph unicode="&#x200a;" horiz-adv-x="128" />
<glyph unicode="&#x2010;" d="M109 586.5q8 32.5 30 42.5q51 24 76 30q209 36 680 113q63 10 110.5 -12t45.5 -60q0 -35 -31.5 -65t-79.5 -39q-181 -34 -588 -104q-189 -30 -237 40q-14 22 -6 54.5z" />
<glyph unicode="&#x2011;" d="M109 586.5q8 32.5 30 42.5q51 24 76 30q209 36 680 113q63 10 110.5 -12t45.5 -60q0 -35 -31.5 -65t-79.5 -39q-181 -34 -588 -104q-189 -30 -237 40q-14 22 -6 54.5z" />
<glyph unicode="&#x2012;" d="M109 586.5q8 32.5 30 42.5q51 24 76 30q209 36 680 113q63 10 110.5 -12t45.5 -60q0 -35 -31.5 -65t-79.5 -39q-181 -34 -588 -104q-189 -30 -237 40q-14 22 -6 54.5z" />
<glyph unicode="&#x2013;" horiz-adv-x="1116" d="M109 666.5q8 32.5 30 42.5q51 24 76 30q209 36 680 113q63 10 110.5 -12t45.5 -60q0 -35 -31.5 -65t-79.5 -39q-248 -46 -588 -105q-188 -30 -237 41q-14 22 -6 54.5z" />
<glyph unicode="&#x2014;" horiz-adv-x="2205" d="M112.5 586.5q17.5 32.5 64.5 42.5q111 24 165 30q453 36 1474 113q136 10 239 -12t99 -60q0 -35 -68.5 -65t-172.5 -39q-392 -34 -1274 -104q-410 -30 -514 40q-30 22 -12.5 54.5z" />
<glyph unicode="&#x2018;" horiz-adv-x="671" d="M406 1556q2 75 27.5 112t86.5 52q20 5 41 -14.5t12 -34.5q-88 -166 41 -323q24 -29 5.5 -57.5t-58.5 -28.5q-75 0 -106 61q-52 98 -49 233z" />
<glyph unicode="&#x2019;" horiz-adv-x="550" d="M185.5 1611.5q18.5 28.5 58.5 28.5q75 3 108 -59q50 -97 47 -235q0 -74 -25.5 -111.5t-88.5 -52.5q-19 -5 -41 14.5t-13 34.5q90 163 -41 323q-23 29 -4.5 57.5z" />
<glyph unicode="&#x201a;" horiz-adv-x="483" d="M149 -286.5q-5 21.5 7 42.5q53 117 39 305q-5 102 -2 132q2 14 13 29t23 18t30.5 -3.5t27.5 -17.5q31 -40 37 -78q10 -51 18 -153q7 -184 -109 -279q-42 -32 -57 -24q-22 7 -27 28.5z" />
<glyph unicode="&#x201c;" horiz-adv-x="710" d="M178 1567q-7 182 111 278q42 31 57 25q22 -8 26.5 -30.5t-5.5 -43.5q-52 -111 -41 -303q7 -78 2 -133q-2 -12 -13.5 -27t-21.5 -18q-14 -3 -32 3.5t-25 16.5q-30 33 -39 78q-2 11 -19 154zM406 1556q2 75 27.5 112t86.5 52q20 5 41 -14.5t12 -34.5q-88 -166 41 -323 q24 -29 5.5 -57.5t-58.5 -28.5q-75 0 -106 61q-52 98 -49 233z" />
<glyph unicode="&#x201d;" horiz-adv-x="772" d="M185.5 1611.5q18.5 28.5 58.5 28.5q75 3 108 -59q50 -97 47 -235q0 -74 -25.5 -111.5t-88.5 -52.5q-19 -5 -41 14.5t-13 34.5q90 163 -41 323q-23 29 -4.5 57.5zM433 1062.5q-5 22.5 7 43.5q54 117 39 303q-5 105 -2 133q2 12 13.5 27t23.5 18t30 -3.5t27 -16.5 q31 -34 37 -78q11 -55 19 -154q7 -181 -109 -276q-38 -33 -57 -27q-23 8 -28 30.5z" />
<glyph unicode="&#x201e;" horiz-adv-x="776" d="M192 263.5q18 27.5 58 29.5q75 0 108 -62q51 -96 48 -235q0 -74 -26 -110.5t-89 -51.5q-19 -5 -40.5 13.5t-12.5 35.5q90 162 -41 322q-23 31 -5 58.5zM439.5 -286.5q-5.5 21.5 6.5 42.5q53 117 39 305q-5 102 -2 132q2 14 13.5 29t23.5 18t30.5 -3.5t27.5 -17.5 q30 -39 36 -78q12 -60 19 -153q7 -184 -109 -279q-42 -32 -57 -24q-22 7 -27.5 28.5z" />
<glyph unicode="&#x202f;" horiz-adv-x="463" />
<glyph unicode="&#x205f;" horiz-adv-x="578" />
<glyph unicode="&#x25fc;" horiz-adv-x="972" d="M0 0v973h973v-973h-973z" />
</font>
</defs>
</svg>
